<?xml version="1.0" encoding="utf-8"?>
<!-- Generator: Adobe Illustrator 27.5.0, SVG Export Plug-In . SVG Version: 6.00 Build 0)  -->
<svg version="1.1" id="_图层_1" xmlns="http://www.w3.org/2000/svg" xmlns:xlink="http://www.w3.org/1999/xlink" x="0px" y="0px"
	 viewBox="0 0 5670 5670" style="enable-background:new 0 0 5670 5670;" xml:space="preserve">
<path d="M0,0v5670h5670V0H0z M2738.2,4620.4v832.9h-792.1c0,54.5-44.2,98.7-98.7,98.7s-98.7-44.2-98.7-98.7H956.6V4292.2
	c-53.6-1-96.8-44.8-96.8-98.7c0-53.9,43.2-97.7,96.8-98.7V2933.7h792.1c0-54.5,44.2-98.7,98.7-98.7s98.7,44.2,98.7,98.7h792.1v832.9
	c62,129.2,96.8,274,96.8,426.9C2835,4346.4,2800.3,4491.2,2738.2,4620.4L2738.2,4620.4z M4713.4,4292.1v1161.2h-792.1
	c0,54.5-44.2,98.7-98.7,98.7c-54.5,0-98.7-44.2-98.7-98.7h-792.1v-832.9c-62-129.2-96.8-274-96.8-426.9
	c0-152.9,34.7-297.7,96.8-426.9v-832.9h792.1c0-54.5,44.2-98.7,98.7-98.7c54.5,0,98.7,44.2,98.7,98.7h792.1v1161.2
	c53.6,1,96.8,44.8,96.8,98.7C4810.2,4247.4,4767,4291.1,4713.4,4292.1L4713.4,4292.1z M4713.4,1903.4v832.9h-792.1
	c0,54.5-44.2,98.7-98.7,98.7c-54.5,0-98.7-44.2-98.7-98.7h-792.1V1575.2c-53.6-1-96.8-44.8-96.8-98.7c0,53.9-43.2,97.7-96.8,98.7
	v1161.2h-792.1c0,54.5-44.2,98.7-98.7,98.7s-98.7-44.2-98.7-98.7H956.6v-832.9c-62-129.2-96.8-274-96.8-426.9s34.7-297.7,96.8-426.9
	V216.7h792.1c0-54.5,44.2-98.7,98.7-98.7s98.7,44.2,98.7,98.7h792.1v1161.2c53.6,1,96.8,44.8,96.8,98.7c0-53.9,43.2-97.7,96.8-98.7
	V216.7h792.1c0-54.5,44.2-98.7,98.7-98.7c54.5,0,98.7,44.2,98.7,98.7h792.1v832.9c62,129.2,96.8,274,96.8,426.9
	S4775.4,1774.2,4713.4,1903.4L4713.4,1903.4z"/>
</svg>
