<?xml version="1.0" encoding="UTF-8"?>
<svg id="_图层_1" data-name=" 图层 1" xmlns="http://www.w3.org/2000/svg" viewBox="0 0 5670 5670">
  <defs>
    <style>
      .cls-1 {
        fill: #231815;
      }
    </style>
  </defs>
  <g>
    <path class="cls-1" d="m2692.18,4750.82h-11.71v30.99h-4.83v-30.99h-11.76v-4.63h28.3v4.63Z"/>
    <path class="cls-1" d="m2661.59,4781.82h-4.83v-13.23c0-2.38-.57-4.25-1.71-5.62s-2.67-2.06-4.61-2.06c-3.46,0-5.19,2-5.19,6.01v14.91h-4.84v-15.88c0-2.92.76-5.22,2.27-6.9s3.61-2.52,6.29-2.52c1.7,0,3.2.32,4.5.97,1.31.65,2.4,1.53,3.28,2.65v-13.95h4.83v35.63h.01Z"/>
    <path class="cls-1" d="m2636.15,4775.25c0,1.22-.31,2.39-.92,3.51-.61,1.12-1.55,2.04-2.83,2.75s-2.82,1.07-4.66,1.07c-1.66,0-3.08-.35-4.25-1.04s-2.09-1.62-2.77-2.77v3.05h-4.53v-16.54c0-2.71.87-4.86,2.6-6.44s4.21-2.37,7.43-2.37c1.87,0,3.56.37,5.09,1.09,1.53.73,2.72,1.82,3.59,3.28s1.25,3.21,1.15,5.24l-4.58.36.05-.71c0-1.56-.47-2.8-1.42-3.72-.95-.92-2.27-1.37-3.97-1.37s-3.05.41-3.97,1.22-1.37,1.87-1.37,3.16v1.02l6.11,1.02c3.09.51,5.4,1.42,6.95,2.72,1.54,1.31,2.32,3.13,2.32,5.47h-.02Zm-4.58-.51c0-1.15-.48-2.02-1.45-2.6s-2.28-1.02-3.94-1.32l-5.39-.87v1.42c0,2.04.57,3.68,1.71,4.94s2.59,1.88,4.35,1.88c1.46,0,2.61-.31,3.46-.94.85-.63,1.27-1.47,1.27-2.52h-.01Z"/>
    <path class="cls-1" d="m2613.35,4761.56h-4.48v11.71c0,2.88-.84,5.16-2.52,6.82-1.68,1.66-3.98,2.49-6.9,2.49-1.7,0-3.22-.4-4.58-1.2s-2.41-1.93-3.16-3.38c-.75-1.46-1.07-3.16-.97-5.09l4.63-.46c-.1,1.73.23,3.11.99,4.15s1.84,1.55,3.23,1.55,2.48-.41,3.26-1.22,1.17-2,1.17-3.56v-11.81h-12.42v-4.28h12.42v-7.33h4.83v7.33h4.48v4.28h.02Z"/>
    <path class="cls-1" d="m2577.21,4769.55c0,2.41-.49,4.61-1.48,6.59-.98,1.98-2.36,3.55-4.12,4.71-1.76,1.15-3.75,1.73-5.95,1.73-1.87,0-3.51-.36-4.94-1.07-1.42-.71-2.63-1.71-3.61-3v3.31h-4.83v-35.63h4.83v14.4c.98-1.29,2.2-2.29,3.64-3s3.08-1.07,4.91-1.07c2.21,0,4.19.58,5.95,1.73s3.14,2.72,4.12,4.71,1.48,4.18,1.48,6.59h0Zm-4.83,0c0-2.44-.72-4.45-2.16-6.03-1.44-1.58-3.28-2.37-5.52-2.37-1.46,0-2.76.37-3.92,1.09-1.15.73-2.05,1.73-2.7,3-.64,1.27-.97,2.71-.97,4.3,0,2.44.71,4.45,2.14,6.03s3.24,2.37,5.45,2.37,4.12-.79,5.55-2.37,2.14-3.59,2.14-6.03h-.01Z"/>
    <path class="cls-1" d="m2548,4775.25c0,1.22-.31,2.39-.92,3.51-.61,1.12-1.55,2.04-2.83,2.75s-2.82,1.07-4.66,1.07c-1.66,0-3.08-.35-4.25-1.04s-2.09-1.62-2.77-2.77v3.05h-4.53v-16.54c0-2.71.87-4.86,2.6-6.44s4.21-2.37,7.43-2.37c1.87,0,3.56.37,5.09,1.09,1.53.73,2.72,1.82,3.59,3.28s1.25,3.21,1.15,5.24l-4.58.36.05-.71c0-1.56-.47-2.8-1.42-3.72-.95-.92-2.27-1.37-3.97-1.37s-3.05.41-3.97,1.22-1.37,1.87-1.37,3.16v1.02l6.11,1.02c3.09.51,5.4,1.42,6.95,2.72,1.54,1.31,2.32,3.13,2.32,5.47h-.02Zm-4.58-.51c0-1.15-.48-2.02-1.45-2.6s-2.28-1.02-3.94-1.32l-5.39-.87v1.42c0,2.04.57,3.68,1.71,4.94s2.59,1.88,4.35,1.88c1.46,0,2.61-.31,3.46-.94.85-.63,1.27-1.47,1.27-2.52h-.01Z"/>
    <path class="cls-1" d="m2524.69,4783.45c.1,2.1-.31,3.95-1.25,5.55-.93,1.59-2.26,2.83-3.97,3.69-1.71.87-3.66,1.3-5.83,1.3-2.41,0-4.54-.54-6.39-1.63-1.85-1.09-3.29-2.59-4.33-4.5s-1.55-4.08-1.55-6.49v-24.07h4.83v11.91c0,2.41.59,4.32,1.78,5.72,1.19,1.41,2.75,2.11,4.68,2.11,3.67,0,5.5-2.04,5.5-6.11v-13.64h4.83l-.05,14.61c0,2.95-.77,5.27-2.32,6.95s-3.69,2.54-6.44,2.57c-3.46-.03-6.12-1.27-7.99-3.72v3.87c0,2.48.68,4.45,2.04,5.93s3.16,2.21,5.4,2.21c1.97,0,3.56-.6,4.78-1.81,1.22-1.2,1.76-2.89,1.63-5.06l4.63.61h.02Z"/>
    <path class="cls-1" d="m2496.59,4768.89h-45.81v-4.68h45.81v4.68Z"/>
    <path class="cls-1" d="m2446.36,4768.89h-45.81v-4.68h45.81v4.68Z"/>
    <path class="cls-1" d="m2396.13,4768.89h-45.81v-4.68h45.81v4.68Z"/>
  </g>
  <g>
    <path class="cls-1" d="m2692.33,4816.38h-4.43v20.26h-4.83v-20.26h-12.72v-4.28h12.72v-2.49c0-1.53-.42-2.73-1.27-3.61s-1.97-1.32-3.36-1.32c-1.29,0-2.31.4-3.05,1.2-.75.8-1.1,1.91-1.07,3.33l-4.48-1.02c.1-2.37.93-4.29,2.49-5.75s3.6-2.19,6.11-2.19c1.9,0,3.56.41,4.99,1.22,1.42.81,2.53,1.95,3.31,3.41s1.17,3.1,1.17,4.94v2.29h4.43v4.28h0Z"/>
    <path class="cls-1" d="m2670.25,4830.07c0,1.22-.31,2.39-.92,3.51-.61,1.12-1.55,2.04-2.83,2.75s-2.82,1.07-4.66,1.07c-1.66,0-3.08-.35-4.25-1.04s-2.09-1.62-2.77-2.77v3.05h-4.53v-16.54c0-2.71.87-4.86,2.6-6.44s4.21-2.37,7.43-2.37c1.87,0,3.56.37,5.09,1.09,1.53.73,2.72,1.82,3.59,3.28s1.25,3.21,1.15,5.24l-4.58.36.05-.71c0-1.56-.47-2.8-1.42-3.72-.95-.92-2.27-1.37-3.97-1.37s-3.05.41-3.97,1.22-1.37,1.87-1.37,3.16v1.02l6.11,1.02c3.09.51,5.4,1.42,6.95,2.72,1.54,1.31,2.32,3.13,2.32,5.47h-.02Zm-4.58-.51c0-1.15-.48-2.02-1.45-2.6s-2.28-1.02-3.94-1.32l-5.39-.87v1.42c0,2.04.57,3.68,1.71,4.94s2.59,1.88,4.35,1.88c1.46,0,2.61-.31,3.46-.94.85-.63,1.27-1.47,1.27-2.52h-.01Z"/>
    <path class="cls-1" d="m2647.45,4816.38h-4.48v11.71c0,2.88-.84,5.16-2.52,6.82-1.68,1.66-3.98,2.49-6.9,2.49-1.7,0-3.22-.4-4.58-1.2s-2.41-1.93-3.16-3.38c-.75-1.46-1.07-3.16-.97-5.09l4.63-.46c-.1,1.73.23,3.11.99,4.15s1.84,1.55,3.23,1.55,2.48-.41,3.26-1.22,1.17-2,1.17-3.56v-11.81h-12.42v-4.28h12.42v-7.33h4.83v7.33h4.48v4.28h.02Z"/>
    <path class="cls-1" d="m2623.12,4824.42c0,2.48-.51,4.7-1.53,6.67-1.02,1.97-2.46,3.51-4.33,4.63s-4.02,1.68-6.46,1.68c-1.93,0-3.72-.38-5.37-1.14s-3-1.84-4.07-3.23-1.74-2.99-2.01-4.78l4.58-.81c.24,1.7.99,3.06,2.26,4.1s2.77,1.55,4.5,1.55c2.17,0,3.97-.7,5.39-2.11s2.26-3.3,2.49-5.68h-18.53v-2.34c0-2.24.45-4.24,1.35-6,.9-1.76,2.18-3.14,3.84-4.12,1.66-.98,3.6-1.48,5.8-1.48,2.38,0,4.48.57,6.31,1.71s3.25,2.71,4.25,4.71,1.5,4.22,1.5,6.67l.03-.03Zm-4.79-3c-.44-1.76-1.31-3.18-2.62-4.25s-2.86-1.6-4.66-1.6c-1.93,0-3.49.56-4.68,1.68s-1.82,2.51-1.88,4.17h13.84,0Z"/>
    <path class="cls-1" d="m2584.08,4848.09h-4.83v-14.76c-.98,1.29-2.19,2.29-3.61,3-1.43.71-3.07,1.07-4.94,1.07-2.21,0-4.19-.58-5.95-1.73s-3.14-2.72-4.12-4.71c-.98-1.99-1.48-4.18-1.48-6.59s.49-4.61,1.48-6.59c.98-1.99,2.36-3.55,4.12-4.71,1.76-1.15,3.75-1.73,5.95-1.73,1.87,0,3.51.36,4.94,1.07,1.42.71,2.63,1.71,3.61,3v-3.31h4.83v35.98h0Zm-4.83-23.72c0-2.44-.71-4.45-2.14-6.03-1.42-1.58-3.24-2.37-5.45-2.37s-4.12.79-5.55,2.37-2.14,3.59-2.14,6.03.72,4.45,2.16,6.03,3.28,2.37,5.52,2.37c1.46,0,2.77-.37,3.92-1.09,1.15-.73,2.05-1.73,2.7-3,.64-1.27.97-2.71.97-4.3h.01Z"/>
    <path class="cls-1" d="m2534.31,4812.1h4.83v13.23c0,2.38.57,4.25,1.71,5.62s2.67,2.06,4.61,2.06c3.46,0,5.19-2,5.19-6.01v-14.91h4.83v15.88c0,2.92-.75,5.22-2.26,6.9s-3.6,2.52-6.29,2.52c-1.7,0-3.2-.32-4.5-.97-1.31-.64-2.4-1.53-3.28-2.65v2.85h-4.83v-24.53h-.01Z"/>
    <path class="cls-1" d="m2529.22,4836.63h-4.83v-35.63h4.83v35.63Z"/>
    <path class="cls-1" d="m2519.34,4836.63h-4.83v-35.63h4.83v35.63Z"/>
    <path class="cls-1" d="m2510.84,4824.42c0,2.48-.51,4.7-1.53,6.67-1.02,1.97-2.46,3.51-4.33,4.63s-4.02,1.68-6.46,1.68c-1.93,0-3.72-.38-5.37-1.14s-3-1.84-4.07-3.23-1.74-2.99-2.01-4.78l4.58-.81c.24,1.7.99,3.06,2.26,4.1s2.77,1.55,4.5,1.55c2.17,0,3.97-.7,5.39-2.11s2.26-3.3,2.49-5.68h-18.53v-2.34c0-2.24.45-4.24,1.35-6,.9-1.76,2.18-3.14,3.84-4.12,1.66-.98,3.6-1.48,5.8-1.48,2.38,0,4.48.57,6.31,1.71s3.25,2.71,4.25,4.71,1.5,4.22,1.5,6.67l.03-.03Zm-4.78-3c-.44-1.76-1.31-3.18-2.62-4.25s-2.86-1.6-4.66-1.6c-1.93,0-3.49.56-4.68,1.68s-1.82,2.51-1.88,4.17h13.84,0Z"/>
    <path class="cls-1" d="m2484.74,4824.37c0,2.41-.49,4.61-1.48,6.59-.98,1.98-2.36,3.55-4.12,4.71-1.76,1.15-3.75,1.73-5.95,1.73-1.87,0-3.51-.36-4.94-1.07-1.42-.71-2.63-1.71-3.61-3v3.31h-4.83v-35.63h4.83v14.4c.98-1.29,2.2-2.29,3.64-3s3.08-1.07,4.91-1.07c2.21,0,4.19.58,5.95,1.73s3.14,2.72,4.12,4.71,1.48,4.18,1.48,6.59h0Zm-4.84,0c0-2.44-.72-4.45-2.16-6.03-1.44-1.58-3.28-2.37-5.52-2.37-1.46,0-2.76.37-3.92,1.09-1.15.73-2.05,1.73-2.7,3-.64,1.27-.97,2.71-.97,4.3,0,2.44.71,4.45,2.14,6.03s3.24,2.37,5.45,2.37,4.12-.79,5.55-2.37,2.14-3.59,2.14-6.03h-.01Z"/>
    <path class="cls-1" d="m2445.34,4816.38h-4.48v11.71c0,2.88-.84,5.16-2.52,6.82-1.68,1.66-3.98,2.49-6.9,2.49-1.7,0-3.22-.4-4.58-1.2s-2.41-1.93-3.16-3.38c-.75-1.46-1.07-3.16-.97-5.09l4.63-.46c-.1,1.73.23,3.11.99,4.15s1.84,1.55,3.23,1.55,2.48-.41,3.26-1.22,1.17-2,1.17-3.56v-11.81h-12.42v-4.28h12.42v-7.33h4.83v7.33h4.48v4.28h.02Z"/>
    <path class="cls-1" d="m2420,4804.88c0,.92-.31,1.69-.94,2.32s-1.4.94-2.32.94-1.64-.31-2.27-.94c-.63-.63-.94-1.4-.94-2.32s.31-1.65.94-2.29,1.38-.97,2.27-.97,1.69.32,2.32.97c.63.65.94,1.41.94,2.29Zm-.87,31.75h-4.83v-24.53h4.83v24.53Z"/>
    <path class="cls-1" d="m2410.53,4823.71c0,2.24-.49,4.28-1.48,6.13-.98,1.85-2.35,3.31-4.1,4.38s-3.72,1.6-5.93,1.6c-3.33,0-5.94-1.25-7.84-3.77v3.97c0,2.61.7,4.68,2.11,6.21,1.41,1.53,3.27,2.29,5.57,2.29,2.1,0,3.78-.65,5.04-1.96s1.85-2.98,1.78-5.01l4.73.61c.03,2.14-.44,4-1.42,5.6s-2.36,2.83-4.12,3.72c-1.76.88-3.75,1.32-5.96,1.32-2.48,0-4.66-.55-6.57-1.65-1.9-1.1-3.38-2.63-4.43-4.58s-1.58-4.18-1.58-6.69v-23.77h4.83v3.21c1.93-2.54,4.55-3.83,7.84-3.87,2.21,0,4.18.55,5.93,1.65s3.11,2.59,4.1,4.45c.98,1.87,1.48,3.92,1.48,6.16h.02Zm-4.83,0c0-2.21-.68-4.03-2.04-5.47-1.36-1.44-3.1-2.16-5.24-2.16s-3.88.72-5.22,2.16-2.01,3.27-2.01,5.47.67,4.02,2.01,5.45c1.34,1.42,3.08,2.14,5.22,2.14s3.89-.71,5.24-2.14c1.36-1.43,2.04-3.24,2.04-5.45Z"/>
    <path class="cls-1" d="m2381.27,4836.63h-4.83v-13.23c0-2.38-.57-4.25-1.71-5.62s-2.67-2.06-4.61-2.06c-3.46,0-5.19,2-5.19,6.01v14.91h-4.84v-15.88c0-2.92.76-5.22,2.27-6.9s3.61-2.52,6.29-2.52c1.7,0,3.2.32,4.5.97,1.31.65,2.4,1.53,3.28,2.65v-13.95h4.83v35.63h.01Z"/>
    <path class="cls-1" d="m2358.21,4816.38h-4.48v11.71c0,2.88-.84,5.16-2.52,6.82-1.68,1.66-3.98,2.49-6.9,2.49-1.7,0-3.22-.4-4.58-1.2s-2.41-1.93-3.16-3.38c-.75-1.46-1.07-3.16-.97-5.09l4.63-.46c-.1,1.73.23,3.11.99,4.15s1.84,1.55,3.23,1.55,2.48-.41,3.26-1.22,1.17-2,1.17-3.56v-11.81h-12.42v-4.28h12.42v-7.33h4.83v7.33h4.48v4.28h.02Z"/>
    <path class="cls-1" d="m2334.14,4833.68c0,.95-.32,1.75-.97,2.39-.64.64-1.44.97-2.39.97-.88,0-1.64-.32-2.26-.97-.63-.64-.94-1.44-.94-2.39,0-.85.31-1.59.94-2.21.63-.63,1.38-.94,2.26-.94.95,0,1.75.31,2.39.92s.97,1.36.97,2.24h0Z"/>
  </g>
  <g>
    <path class="cls-1" d="m2689.79,4946.27h-4.83v-15.88h-19.59v15.88h-4.83v-35.63h4.83v15.07h19.59v-15.07h4.83v35.63Z"/>
    <path class="cls-1" d="m2656.5,4934.05c0,2.48-.51,4.7-1.53,6.67-1.02,1.97-2.46,3.51-4.33,4.63s-4.02,1.68-6.46,1.68c-1.93,0-3.72-.38-5.37-1.15s-3-1.84-4.07-3.23-1.74-2.98-2.01-4.78l4.58-.81c.24,1.7.99,3.06,2.26,4.1s2.77,1.55,4.5,1.55c2.17,0,3.97-.7,5.39-2.11s2.26-3.3,2.49-5.67h-18.53v-2.34c0-2.24.45-4.24,1.35-6.01.9-1.76,2.18-3.14,3.84-4.12,1.66-.98,3.6-1.48,5.8-1.48,2.38,0,4.48.57,6.31,1.71s3.25,2.71,4.25,4.71,1.5,4.22,1.5,6.67l.03-.02Zm-4.78-3c-.44-1.76-1.31-3.18-2.62-4.25s-2.86-1.6-4.66-1.6c-1.93,0-3.49.56-4.68,1.68s-1.82,2.51-1.88,4.17h13.84,0Z"/>
    <path class="cls-1" d="m2619.66,4926.01h-4.48v11.71c0,2.88-.84,5.16-2.52,6.82-1.68,1.66-3.98,2.49-6.9,2.49-1.7,0-3.22-.4-4.58-1.2s-2.41-1.93-3.16-3.38c-.75-1.46-1.07-3.16-.97-5.09l4.63-.46c-.1,1.73.23,3.11.99,4.15s1.84,1.55,3.23,1.55,2.48-.41,3.26-1.22,1.17-2,1.17-3.56v-11.81h-12.42v-4.28h12.42v-7.33h4.83v7.33h4.48v4.28h.02Z"/>
    <path class="cls-1" d="m2593.7,4946.27h-4.83v-13.23c0-2.37-.57-4.25-1.71-5.62-1.14-1.38-2.67-2.06-4.61-2.06-3.46,0-5.19,2-5.19,6.01v14.91h-4.84v-15.88c0-2.92.76-5.22,2.27-6.9,1.51-1.68,3.61-2.52,6.29-2.52,1.7,0,3.2.32,4.5.97,1.31.65,2.4,1.53,3.28,2.65v-13.95h4.83v35.63h.01Z"/>
    <path class="cls-1" d="m2568.81,4934.05c0,2.44-.54,4.65-1.63,6.62-1.08,1.97-2.6,3.52-4.53,4.66s-4.14,1.71-6.62,1.71-4.67-.57-6.57-1.71c-1.9-1.14-3.38-2.69-4.45-4.66s-1.6-4.17-1.6-6.62.53-4.61,1.6-6.62c1.07-2,2.56-3.58,4.48-4.73s4.1-1.73,6.54-1.73,4.68.58,6.62,1.73,3.44,2.73,4.53,4.73,1.63,4.21,1.63,6.62Zm-4.83,0c0-1.59-.34-3.04-1.02-4.33s-1.62-2.3-2.83-3.03c-1.2-.73-2.55-1.09-4.05-1.09s-2.84.37-4.05,1.09c-1.2.73-2.14,1.74-2.8,3.03-.66,1.29-.99,2.73-.99,4.33,0,2.41.74,4.4,2.21,5.98,1.48,1.58,3.35,2.37,5.62,2.37,1.49,0,2.84-.36,4.05-1.09s2.15-1.73,2.83-3c.68-1.27,1.02-2.69,1.02-4.25h.01Z"/>
    <path class="cls-1" d="m2518.58,4921.74h4.83v13.23c0,2.38.57,4.25,1.71,5.62s2.67,2.06,4.61,2.06c3.46,0,5.19-2,5.19-6v-14.91h4.83v15.88c0,2.92-.75,5.22-2.26,6.9s-3.6,2.52-6.29,2.52c-1.7,0-3.2-.32-4.5-.97-1.31-.64-2.4-1.53-3.28-2.65v2.85h-4.83v-24.53h-.01Z"/>
    <path class="cls-1" d="m2514.81,4933.34c0,2.24-.49,4.28-1.48,6.13s-2.35,3.31-4.1,4.38-3.72,1.6-5.93,1.6c-3.33,0-5.94-1.25-7.84-3.77v3.97c0,2.61.7,4.68,2.11,6.21,1.41,1.53,3.27,2.29,5.57,2.29,2.1,0,3.78-.65,5.04-1.96s1.85-2.98,1.78-5.01l4.73.61c.03,2.14-.44,4-1.42,5.6-.98,1.59-2.36,2.83-4.12,3.71s-3.75,1.32-5.96,1.32c-2.48,0-4.66-.55-6.57-1.65-1.9-1.1-3.38-2.63-4.43-4.58s-1.58-4.18-1.58-6.69v-23.77h4.83v3.21c1.93-2.54,4.55-3.83,7.84-3.87,2.21,0,4.18.55,5.93,1.65s3.11,2.59,4.1,4.45c.98,1.87,1.48,3.92,1.48,6.16h.02Zm-4.83,0c0-2.21-.68-4.03-2.04-5.47-1.36-1.44-3.1-2.16-5.24-2.16s-3.88.72-5.22,2.16-2.01,3.27-2.01,5.47.67,4.02,2.01,5.45c1.34,1.42,3.08,2.14,5.22,2.14s3.89-.71,5.24-2.14c1.36-1.43,2.04-3.24,2.04-5.45Z"/>
    <path class="cls-1" d="m2485.55,4946.27h-4.83v-13.23c0-2.37-.57-4.25-1.71-5.62-1.14-1.38-2.67-2.06-4.61-2.06-3.46,0-5.19,2-5.19,6.01v14.91h-4.84v-15.88c0-2.92.76-5.22,2.27-6.9,1.51-1.68,3.61-2.52,6.29-2.52,1.7,0,3.2.32,4.5.97,1.31.65,2.4,1.53,3.28,2.65v-13.95h4.83v35.63h.01Z"/>
    <path class="cls-1" d="m2462.5,4926.01h-4.48v11.71c0,2.88-.84,5.16-2.52,6.82-1.68,1.66-3.98,2.49-6.9,2.49-1.7,0-3.22-.4-4.58-1.2s-2.41-1.93-3.16-3.38c-.75-1.46-1.07-3.16-.97-5.09l4.63-.46c-.1,1.73.23,3.11.99,4.15s1.84,1.55,3.23,1.55,2.48-.41,3.26-1.22,1.17-2,1.17-3.56v-11.81h-12.42v-4.28h12.42v-7.33h4.83v7.33h4.48v4.28h.02Z"/>
    <path class="cls-1" d="m2424.99,4946.27h-4.83v-13.23c0-2.37-.57-4.25-1.71-5.62-1.14-1.38-2.67-2.06-4.61-2.06-3.46,0-5.19,2-5.19,6.01v14.91h-4.84v-15.88c0-2.92.76-5.22,2.27-6.9,1.51-1.68,3.61-2.52,6.29-2.52,1.7,0,3.2.32,4.5.97,1.31.65,2.4,1.53,3.28,2.65v-13.95h4.83v35.63h.01Z"/>
    <path class="cls-1" d="m2400.1,4934.05c0,2.48-.51,4.7-1.53,6.67-1.02,1.97-2.46,3.51-4.33,4.63s-4.02,1.68-6.46,1.68c-1.93,0-3.72-.38-5.37-1.15s-3-1.84-4.07-3.23-1.74-2.98-2.01-4.78l4.58-.81c.24,1.7.99,3.06,2.26,4.1s2.77,1.55,4.5,1.55c2.17,0,3.97-.7,5.39-2.11s2.26-3.3,2.49-5.67h-18.53v-2.34c0-2.24.45-4.24,1.35-6.01.9-1.76,2.18-3.14,3.84-4.12,1.66-.98,3.6-1.48,5.8-1.48,2.38,0,4.48.57,6.31,1.71s3.25,2.71,4.25,4.71,1.5,4.22,1.5,6.67l.03-.02Zm-4.79-3c-.44-1.76-1.31-3.18-2.62-4.25s-2.86-1.6-4.66-1.6c-1.93,0-3.49.56-4.68,1.68s-1.82,2.51-1.88,4.17h13.84,0Z"/>
    <path class="cls-1" d="m2375.52,4921.84c-.24.07-.63.1-1.17.1-1.87,0-3.37-.74-4.5-2.21s-1.71-3.32-1.71-5.52c0-1.19.31-2.15.94-2.88s1.49-1.09,2.57-1.09c.95,0,1.74.31,2.37.92.63.61.94,1.36.94,2.24,0,.95-.31,1.74-.94,2.37s-1.42.94-2.37.94c-.17,0-.42-.03-.76-.1.2.95.61,1.69,1.22,2.21.61.53,1.36.79,2.24.79.27,0,.49-.02.66-.05l.51,2.29h0Z"/>
    <path class="cls-1" d="m2369.51,4934c0,2.41-.49,4.61-1.48,6.59s-2.36,3.55-4.12,4.71c-1.76,1.15-3.75,1.73-5.95,1.73-1.87,0-3.51-.36-4.94-1.07-1.42-.71-2.63-1.71-3.61-3v3.31h-4.83v-35.63h4.83v14.4c.98-1.29,2.2-2.29,3.64-3s3.08-1.07,4.91-1.07c2.21,0,4.19.58,5.95,1.73s3.14,2.72,4.12,4.71c.98,1.98,1.48,4.18,1.48,6.59h0Zm-4.84,0c0-2.44-.72-4.45-2.16-6.03-1.44-1.58-3.28-2.37-5.52-2.37-1.46,0-2.76.37-3.92,1.09-1.15.73-2.05,1.73-2.7,3-.64,1.27-.97,2.71-.97,4.3,0,2.44.71,4.45,2.14,6.03,1.42,1.58,3.24,2.37,5.45,2.37s4.12-.79,5.55-2.37c1.42-1.58,2.14-3.59,2.14-6.03h-.01Z"/>
    <path class="cls-1" d="m2329.3,4934.05c0,2.48-.53,4.7-1.58,6.67-1.05,1.97-2.53,3.51-4.43,4.63s-4.09,1.68-6.57,1.68c-2,0-3.84-.42-5.52-1.25s-3.05-1.98-4.12-3.44-1.71-3.12-1.91-4.99l4.58-1.12c.17,1.83.92,3.32,2.26,4.45,1.34,1.14,2.94,1.71,4.81,1.71,2.27,0,4.11-.81,5.52-2.42s2.11-3.72,2.11-6.34c0-1.46-.31-2.81-.94-4.05-.63-1.24-1.5-2.21-2.62-2.93-1.12-.71-2.39-1.07-3.82-1.07-1.7,0-3.1.47-4.22,1.4-1.12.93-1.8,2.16-2.04,3.69l-4.43-1.48c.54-2.51,1.76-4.51,3.66-6.01,1.9-1.49,4.24-2.24,7.02-2.24,2.41,0,4.54.57,6.39,1.71,1.85,1.14,3.28,2.71,4.3,4.71s1.53,4.22,1.53,6.67l.02.02Z"/>
    <path class="cls-1" d="m2302.74,4939.7c0,1.22-.31,2.39-.92,3.51-.61,1.12-1.55,2.04-2.83,2.75s-2.82,1.07-4.66,1.07c-1.66,0-3.08-.35-4.25-1.04s-2.09-1.62-2.77-2.77v3.05h-4.53v-16.54c0-2.71.87-4.86,2.6-6.44s4.21-2.37,7.43-2.37c1.87,0,3.56.36,5.09,1.09s2.72,1.82,3.59,3.28,1.25,3.21,1.15,5.24l-4.58.36.05-.71c0-1.56-.47-2.8-1.42-3.71-.95-.92-2.27-1.38-3.97-1.38s-3.05.41-3.97,1.22-1.37,1.87-1.37,3.16v1.02l6.11,1.02c3.09.51,5.4,1.42,6.95,2.72s2.32,3.13,2.32,5.47h-.02Zm-4.58-.51c0-1.15-.48-2.02-1.45-2.6s-2.28-1.02-3.94-1.32l-5.39-.87v1.42c0,2.04.57,3.68,1.71,4.94s2.59,1.88,4.35,1.88c1.46,0,2.61-.31,3.46-.94.85-.63,1.27-1.47,1.27-2.52h-.01Z"/>
    <path class="cls-1" d="m2279.94,4926.01h-4.48v11.71c0,2.88-.84,5.16-2.52,6.82-1.68,1.66-3.98,2.49-6.9,2.49-1.7,0-3.22-.4-4.58-1.2s-2.41-1.93-3.16-3.38c-.75-1.46-1.07-3.16-.97-5.09l4.63-.46c-.1,1.73.23,3.11.99,4.15s1.84,1.55,3.23,1.55,2.48-.41,3.26-1.22,1.17-2,1.17-3.56v-11.81h-12.42v-4.28h12.42v-7.33h4.83v7.33h4.48v4.28h.02Z"/>
    <path class="cls-1" d="m2255.61,4934.05c0,2.48-.53,4.7-1.58,6.67-1.05,1.97-2.53,3.51-4.43,4.63s-4.09,1.68-6.57,1.68c-2,0-3.84-.42-5.52-1.25s-3.05-1.98-4.12-3.44-1.71-3.12-1.91-4.99l4.58-1.12c.17,1.83.92,3.32,2.26,4.45,1.34,1.14,2.94,1.71,4.81,1.71,2.27,0,4.11-.81,5.52-2.42s2.11-3.72,2.11-6.34c0-1.46-.31-2.81-.94-4.05-.63-1.24-1.5-2.21-2.62-2.93-1.12-.71-2.39-1.07-3.82-1.07-1.7,0-3.1.47-4.22,1.4-1.12.93-1.8,2.16-2.04,3.69l-4.43-1.48c.54-2.51,1.76-4.51,3.66-6.01,1.9-1.49,4.24-2.24,7.02-2.24,2.41,0,4.54.57,6.39,1.71,1.85,1.14,3.28,2.71,4.3,4.71s1.53,4.22,1.53,6.67l.02.02Z"/>
    <path class="cls-1" d="m2228.23,4946.27h-4.83v-13.23c0-2.37-.57-4.25-1.71-5.62-1.14-1.38-2.67-2.06-4.61-2.06-3.46,0-5.19,2-5.19,6.01v14.91h-4.84v-15.88c0-2.92.76-5.22,2.27-6.9,1.51-1.68,3.61-2.52,6.29-2.52,1.7,0,3.2.32,4.5.97,1.31.65,2.4,1.53,3.28,2.65v-13.95h4.83v35.63h.01Z"/>
    <path class="cls-1" d="m2190.41,4946.27h-4.68v-13.74c0-2.34-.45-4.12-1.35-5.34-.9-1.22-2.11-1.83-3.64-1.83-1.39,0-2.42.4-3.08,1.2-.66.8-.99,2.1-.99,3.89v15.83h-4.63l.1-14.4c-.1-2.14-.59-3.76-1.48-4.86-.88-1.1-2.05-1.65-3.51-1.65s-2.42.4-3.08,1.2c-.66.8-.99,2.1-.99,3.89v15.83h-4.68l.1-17c0-2.75.63-4.82,1.88-6.21,1.26-1.39,3.04-2.09,5.34-2.09,1.6,0,2.99.38,4.17,1.15,1.19.76,2.14,1.84,2.85,3.23.51-1.42,1.33-2.51,2.47-3.26s2.54-1.12,4.2-1.12c1.39,0,2.62.32,3.69.97,1.07.65,1.94,1.54,2.62,2.7v-2.85h4.68v24.48-.02Z"/>
    <path class="cls-1" d="m2154.68,4934.05c0,2.48-.51,4.7-1.53,6.67-1.02,1.97-2.46,3.51-4.33,4.63s-4.02,1.68-6.46,1.68c-1.93,0-3.72-.38-5.37-1.15s-3-1.84-4.07-3.23-1.74-2.98-2.01-4.78l4.58-.81c.24,1.7.99,3.06,2.26,4.1s2.77,1.55,4.5,1.55c2.17,0,3.97-.7,5.39-2.11s2.26-3.3,2.49-5.67h-18.53v-2.34c0-2.24.45-4.24,1.35-6.01.9-1.76,2.18-3.14,3.84-4.12,1.66-.98,3.6-1.48,5.8-1.48,2.38,0,4.48.57,6.31,1.71s3.25,2.71,4.25,4.71,1.5,4.22,1.5,6.67l.03-.02Zm-4.78-3c-.44-1.76-1.31-3.18-2.62-4.25s-2.86-1.6-4.66-1.6c-1.93,0-3.49.56-4.68,1.68s-1.82,2.51-1.88,4.17h13.84,0Z"/>
    <path class="cls-1" d="m2128.83,4943.32c0,.95-.32,1.75-.97,2.39s-1.44.97-2.39.97c-.88,0-1.64-.32-2.26-.97-.63-.64-.94-1.44-.94-2.39,0-.85.31-1.59.94-2.21.63-.63,1.38-.94,2.26-.94.95,0,1.75.31,2.39.92s.97,1.36.97,2.24h0Z"/>
  </g>
  <g>
    <path class="cls-1" d="m2689.79,5001.08h-4.83v-35.63h4.83v35.63Z"/>
    <path class="cls-1" d="m2670.2,4980.83h-4.48v11.71c0,2.88-.84,5.16-2.52,6.82s-3.98,2.49-6.9,2.49c-1.7,0-3.22-.4-4.58-1.2s-2.41-1.92-3.16-3.38-1.07-3.15-.97-5.09l4.63-.46c-.1,1.73.23,3.11.99,4.15s1.84,1.55,3.23,1.55,2.48-.41,3.26-1.22,1.17-2,1.17-3.56v-11.81h-12.42v-4.28h12.42v-7.33h4.83v7.33h4.48v4.28h.02Z"/>
    <path class="cls-1" d="m2644.24,5001.08h-4.83v-13.23c0-2.37-.57-4.25-1.71-5.62s-2.67-2.06-4.61-2.06c-3.46,0-5.19,2-5.19,6.01v14.91h-4.84v-15.88c0-2.92.76-5.22,2.27-6.9,1.51-1.68,3.61-2.52,6.29-2.52,1.7,0,3.2.32,4.5.97,1.31.64,2.4,1.53,3.28,2.65v-13.95h4.83v35.63h.01Z"/>
    <path class="cls-1" d="m2619.35,4988.87c0,2.44-.54,4.65-1.63,6.62-1.08,1.97-2.6,3.52-4.53,4.66s-4.14,1.71-6.62,1.71-4.67-.57-6.57-1.71c-1.9-1.14-3.38-2.69-4.45-4.66s-1.6-4.17-1.6-6.62.53-4.61,1.6-6.62c1.07-2,2.56-3.58,4.48-4.73s4.1-1.73,6.54-1.73,4.68.58,6.62,1.73c1.93,1.15,3.44,2.73,4.53,4.73s1.63,4.21,1.63,6.62Zm-4.83,0c0-1.6-.34-3.04-1.02-4.33s-1.62-2.3-2.83-3.03c-1.2-.73-2.55-1.09-4.05-1.09s-2.84.37-4.05,1.09c-1.2.73-2.14,1.74-2.8,3.03-.66,1.29-.99,2.73-.99,4.33,0,2.41.74,4.4,2.21,5.98,1.48,1.58,3.35,2.37,5.62,2.37,1.49,0,2.84-.36,4.05-1.09s2.15-1.73,2.83-3,1.02-2.69,1.02-4.25h.01Z"/>
    <path class="cls-1" d="m2569.12,4976.55h4.83v13.23c0,2.38.57,4.25,1.71,5.62,1.14,1.38,2.67,2.06,4.61,2.06,3.46,0,5.19-2,5.19-6v-14.91h4.83v15.88c0,2.92-.75,5.22-2.26,6.9s-3.6,2.52-6.29,2.52c-1.7,0-3.2-.32-4.5-.97-1.31-.64-2.4-1.53-3.28-2.65v2.85h-4.83v-24.53h-.01Z"/>
    <path class="cls-1" d="m2565.35,4988.16c0,2.24-.49,4.28-1.48,6.13s-2.35,3.31-4.1,4.38-3.72,1.6-5.93,1.6c-3.33,0-5.94-1.26-7.84-3.77v3.97c0,2.61.7,4.68,2.11,6.21,1.41,1.53,3.27,2.29,5.57,2.29,2.1,0,3.78-.65,5.04-1.96s1.85-2.98,1.78-5.01l4.73.61c.03,2.14-.44,4-1.42,5.6-.98,1.59-2.36,2.83-4.12,3.71s-3.75,1.32-5.96,1.32c-2.48,0-4.66-.55-6.57-1.65-1.9-1.1-3.38-2.63-4.43-4.58s-1.58-4.18-1.58-6.69v-23.77h4.83v3.21c1.93-2.54,4.55-3.83,7.84-3.87,2.21,0,4.18.55,5.93,1.65s3.11,2.59,4.1,4.45c.98,1.87,1.48,3.92,1.48,6.16h.02Zm-4.83,0c0-2.21-.68-4.03-2.04-5.47-1.36-1.44-3.1-2.16-5.24-2.16s-3.88.72-5.22,2.16-2.01,3.27-2.01,5.47.67,4.02,2.01,5.45,3.08,2.14,5.22,2.14,3.89-.71,5.24-2.14c1.36-1.42,2.04-3.24,2.04-5.45Z"/>
    <path class="cls-1" d="m2536.09,5001.08h-4.83v-13.23c0-2.37-.57-4.25-1.71-5.62s-2.67-2.06-4.61-2.06c-3.46,0-5.19,2-5.19,6.01v14.91h-4.84v-15.88c0-2.92.76-5.22,2.27-6.9,1.51-1.68,3.61-2.52,6.29-2.52,1.7,0,3.2.32,4.5.97,1.31.64,2.4,1.53,3.28,2.65v-13.95h4.83v35.63h.01Z"/>
    <path class="cls-1" d="m2513.03,4980.83h-4.48v11.71c0,2.88-.84,5.16-2.52,6.82s-3.98,2.49-6.9,2.49c-1.7,0-3.22-.4-4.58-1.2s-2.41-1.92-3.16-3.38-1.07-3.15-.97-5.09l4.63-.46c-.1,1.73.23,3.11.99,4.15s1.84,1.55,3.23,1.55,2.48-.41,3.26-1.22,1.17-2,1.17-3.56v-11.81h-12.42v-4.28h12.42v-7.33h4.83v7.33h4.48v4.28h.02Z"/>
    <path class="cls-1" d="m2475.17,5001.08h-4.83v-35.63h4.83v35.63Z"/>
    <path class="cls-1" d="m2453.38,5001.08h-4.68v-13.74c0-2.34-.45-4.12-1.35-5.34-.9-1.22-2.11-1.83-3.64-1.83-1.39,0-2.42.4-3.08,1.2-.66.8-.99,2.1-.99,3.89v15.83h-4.63l.1-14.4c-.1-2.14-.59-3.76-1.48-4.86-.88-1.1-2.05-1.65-3.51-1.65s-2.42.4-3.08,1.2c-.66.8-.99,2.1-.99,3.89v15.83h-4.68l.1-17c0-2.75.63-4.82,1.88-6.21,1.26-1.39,3.04-2.09,5.34-2.09,1.6,0,2.99.38,4.17,1.14,1.19.76,2.14,1.84,2.85,3.23.51-1.43,1.33-2.51,2.47-3.26s2.54-1.12,4.2-1.12c1.39,0,2.62.32,3.69.97,1.07.64,1.94,1.54,2.62,2.7v-2.85h4.68v24.48h0Z"/>
    <path class="cls-1" d="m2417.15,4969.33c0,.92-.31,1.69-.94,2.32s-1.4.94-2.32.94-1.64-.31-2.27-.94-.94-1.4-.94-2.32.31-1.64.94-2.29c.63-.64,1.38-.97,2.27-.97s1.69.32,2.32.97.94,1.41.94,2.29Zm-.87,31.75h-4.83v-24.53h4.83v24.53Z"/>
    <path class="cls-1" d="m2407.68,4988.16c0,2.24-.49,4.28-1.48,6.13s-2.35,3.31-4.1,4.38-3.72,1.6-5.93,1.6c-3.33,0-5.94-1.26-7.84-3.77v3.97c0,2.61.7,4.68,2.11,6.21,1.41,1.53,3.27,2.29,5.57,2.29,2.1,0,3.78-.65,5.04-1.96s1.85-2.98,1.78-5.01l4.73.61c.03,2.14-.44,4-1.42,5.6-.98,1.59-2.36,2.83-4.12,3.71s-3.75,1.32-5.96,1.32c-2.48,0-4.66-.55-6.57-1.65-1.9-1.1-3.38-2.63-4.43-4.58s-1.58-4.18-1.58-6.69v-23.77h4.83v3.21c1.93-2.54,4.55-3.83,7.84-3.87,2.21,0,4.18.55,5.93,1.65s3.11,2.59,4.1,4.45c.98,1.87,1.48,3.92,1.48,6.16h.02Zm-4.83,0c0-2.21-.68-4.03-2.04-5.47-1.36-1.44-3.1-2.16-5.24-2.16s-3.88.72-5.22,2.16-2.01,3.27-2.01,5.47.67,4.02,2.01,5.45,3.08,2.14,5.22,2.14,3.89-.71,5.24-2.14c1.36-1.42,2.04-3.24,2.04-5.45Z"/>
    <path class="cls-1" d="m2378.42,5001.08h-4.83v-13.23c0-2.37-.57-4.25-1.71-5.62s-2.67-2.06-4.61-2.06c-3.46,0-5.19,2-5.19,6.01v14.91h-4.84v-15.88c0-2.92.76-5.22,2.27-6.9,1.51-1.68,3.61-2.52,6.29-2.52,1.7,0,3.2.32,4.5.97,1.31.64,2.4,1.53,3.28,2.65v-13.95h4.83v35.63h.01Z"/>
    <path class="cls-1" d="m2355.36,4980.83h-4.48v11.71c0,2.88-.84,5.16-2.52,6.82s-3.98,2.49-6.9,2.49c-1.7,0-3.22-.4-4.58-1.2s-2.41-1.92-3.16-3.38-1.07-3.15-.97-5.09l4.63-.46c-.1,1.73.23,3.11.99,4.15s1.84,1.55,3.23,1.55,2.48-.41,3.26-1.22,1.17-2,1.17-3.56v-11.81h-12.42v-4.28h12.42v-7.33h4.83v7.33h4.48v4.28h.02Z"/>
    <path class="cls-1" d="m2317.85,5001.08h-4.78v-3.36c-.98,1.29-2.2,2.3-3.64,3.03s-3.08,1.1-4.91,1.1c-2.21,0-4.19-.58-5.95-1.73s-3.14-2.72-4.12-4.71c-.98-1.98-1.48-4.18-1.48-6.59s.49-4.61,1.48-6.59c.98-1.98,2.36-3.55,4.12-4.71,1.76-1.15,3.75-1.73,5.95-1.73,1.87,0,3.51.36,4.94,1.09,1.42.73,2.63,1.76,3.61,3.08v-14.5h4.78v35.63h0Zm-4.78-12.26c0-2.41-.71-4.4-2.14-5.98s-3.26-2.37-5.5-2.37-4.07.79-5.5,2.37-2.14,3.57-2.14,5.98.71,4.45,2.14,6c1.42,1.56,3.26,2.34,5.5,2.34s4.07-.78,5.5-2.34c1.42-1.56,2.14-3.56,2.14-6Z"/>
    <path class="cls-1" d="m2290.11,4969.33c0,.92-.31,1.69-.94,2.32s-1.4.94-2.32.94-1.64-.31-2.27-.94-.94-1.4-.94-2.32.31-1.64.94-2.29c.63-.64,1.38-.97,2.27-.97s1.69.32,2.32.97.94,1.41.94,2.29Zm-.86,31.75h-4.83v-24.53h4.83v24.53Z"/>
    <path class="cls-1" d="m2281.51,4980.83h-4.48v11.71c0,2.88-.84,5.16-2.52,6.82s-3.98,2.49-6.9,2.49c-1.7,0-3.22-.4-4.58-1.2s-2.41-1.92-3.16-3.38-1.07-3.15-.97-5.09l4.63-.46c-.1,1.73.23,3.11.99,4.15s1.84,1.55,3.23,1.55,2.48-.41,3.26-1.22,1.17-2,1.17-3.56v-11.81h-12.42v-4.28h12.42v-7.33h4.83v7.33h4.48v4.28h.02Z"/>
    <path class="cls-1" d="m2257.18,4988.87c0,2.48-.51,4.7-1.53,6.67-1.02,1.97-2.46,3.51-4.33,4.63s-4.02,1.68-6.46,1.68c-1.93,0-3.72-.38-5.37-1.15-1.65-.76-3-1.84-4.07-3.23s-1.74-2.99-2.01-4.78l4.58-.81c.24,1.7.99,3.06,2.26,4.1s2.77,1.55,4.5,1.55c2.17,0,3.97-.71,5.39-2.11,1.42-1.41,2.26-3.3,2.49-5.67h-18.53v-2.34c0-2.24.45-4.24,1.35-6.01.9-1.76,2.18-3.14,3.84-4.12,1.66-.98,3.6-1.48,5.8-1.48,2.38,0,4.48.57,6.31,1.71s3.25,2.71,4.25,4.71,1.5,4.22,1.5,6.67l.03-.02Zm-4.78-3c-.44-1.76-1.31-3.18-2.62-4.25s-2.86-1.6-4.66-1.6c-1.93,0-3.49.56-4.68,1.68s-1.82,2.51-1.88,4.17h13.84,0Z"/>
    <path class="cls-1" d="m2231.33,4998.13c0,.95-.32,1.75-.97,2.39s-1.44.97-2.39.97c-.88,0-1.64-.32-2.26-.97-.63-.64-.94-1.44-.94-2.39,0-.85.31-1.58.94-2.21s1.38-.94,2.26-.94c.95,0,1.75.3,2.39.92.64.61.97,1.36.97,2.24h0Z"/>
  </g>
  <g>
    <path class="cls-1" d="m2692.54,5020.27l-9.16,35.63h-5.95l-7.18-27.84-7.18,27.84h-5.9l-9.16-35.63h4.94l7.23,28.86,7.48-28.86h5.24l7.48,28.6,7.18-28.6h4.99-.01Z"/>
    <path class="cls-1" d="m2649.28,5043.69c0,2.48-.51,4.7-1.53,6.67-1.02,1.97-2.46,3.51-4.33,4.63s-4.02,1.68-6.46,1.68c-1.93,0-3.72-.38-5.37-1.15-1.65-.76-3-1.84-4.07-3.23s-1.74-2.99-2.01-4.78l4.58-.81c.24,1.7.99,3.06,2.26,4.1s2.77,1.55,4.5,1.55c2.17,0,3.97-.71,5.39-2.11,1.42-1.41,2.26-3.3,2.49-5.67h-18.53v-2.34c0-2.24.45-4.24,1.35-6.01.9-1.76,2.18-3.14,3.84-4.12,1.66-.98,3.6-1.48,5.8-1.48,2.38,0,4.48.57,6.31,1.71s3.25,2.71,4.25,4.71,1.5,4.22,1.5,6.67l.03-.02Zm-4.79-3.01c-.44-1.76-1.31-3.18-2.62-4.25s-2.86-1.6-4.66-1.6c-1.93,0-3.49.56-4.68,1.68s-1.82,2.51-1.88,4.17h13.84,0Z"/>
    <path class="cls-1" d="m2610.24,5055.9h-4.78v-3.36c-.98,1.29-2.2,2.3-3.64,3.03s-3.08,1.1-4.91,1.1c-2.21,0-4.19-.58-5.95-1.73s-3.14-2.72-4.12-4.71c-.98-1.98-1.48-4.18-1.48-6.59s.49-4.61,1.48-6.59c.98-1.98,2.36-3.55,4.12-4.71,1.76-1.15,3.75-1.73,5.95-1.73,1.87,0,3.51.36,4.94,1.09,1.42.73,2.63,1.76,3.61,3.08v-14.5h4.78v35.63h0Zm-4.78-12.26c0-2.41-.71-4.4-2.14-5.98s-3.26-2.37-5.5-2.37-4.07.79-5.5,2.37-2.14,3.57-2.14,5.98.71,4.45,2.14,6c1.42,1.56,3.26,2.34,5.5,2.34s4.07-.78,5.5-2.34c1.42-1.56,2.14-3.56,2.14-6Z"/>
    <path class="cls-1" d="m2583.01,5043.69c0,2.44-.54,4.65-1.63,6.62-1.08,1.97-2.6,3.52-4.53,4.66s-4.14,1.71-6.62,1.71-4.67-.57-6.57-1.71c-1.9-1.14-3.38-2.69-4.45-4.66s-1.6-4.17-1.6-6.62.53-4.61,1.6-6.62c1.07-2,2.56-3.58,4.48-4.73s4.1-1.73,6.54-1.73,4.68.58,6.62,1.73c1.93,1.15,3.44,2.73,4.53,4.73s1.63,4.21,1.63,6.62Zm-4.83,0c0-1.6-.34-3.04-1.02-4.33s-1.62-2.3-2.83-3.03c-1.2-.73-2.55-1.09-4.05-1.09s-2.84.37-4.05,1.09c-1.2.73-2.14,1.74-2.8,3.03-.66,1.29-.99,2.73-.99,4.33,0,2.41.74,4.4,2.21,5.98,1.48,1.58,3.35,2.37,5.62,2.37,1.49,0,2.84-.36,4.05-1.09s2.15-1.73,2.83-3,1.02-2.69,1.02-4.25h.01Z"/>
    <path class="cls-1" d="m2556.09,5035.64h-4.48v11.71c0,2.88-.84,5.16-2.52,6.82s-3.98,2.49-6.9,2.49c-1.7,0-3.22-.4-4.58-1.2s-2.41-1.92-3.16-3.38-1.07-3.15-.97-5.09l4.63-.46c-.1,1.73.23,3.11.99,4.15s1.84,1.55,3.23,1.55,2.48-.41,3.26-1.22,1.17-2,1.17-3.56v-11.81h-12.42v-4.28h12.42v-7.33h4.83v7.33h4.48v4.28h.02Z"/>
    <path class="cls-1" d="m2530.13,5055.9h-4.83v-13.23c0-2.37-.57-4.25-1.71-5.62s-2.67-2.06-4.61-2.06c-3.46,0-5.19,2-5.19,6.01v14.91h-4.84v-15.88c0-2.92.76-5.22,2.27-6.9,1.51-1.68,3.61-2.52,6.29-2.52,1.7,0,3.2.32,4.5.97,1.31.64,2.4,1.53,3.28,2.65v-13.95h4.83v35.63h.01Z"/>
    <path class="cls-1" d="m2494.2,5031.37l-7.53,24.53h-4.83l-5.24-17.25-5.24,17.25h-4.73l-7.63-24.53h4.84l5.24,17.71,5.34-17.71h4.43l5.34,17.66,5.24-17.66h4.78-.01Z"/>
    <path class="cls-1" d="m2457.61,5049.33c0,1.22-.31,2.39-.92,3.51-.61,1.12-1.55,2.04-2.83,2.75-1.27.71-2.82,1.07-4.66,1.07-1.66,0-3.08-.35-4.25-1.04-1.17-.7-2.09-1.62-2.77-2.77v3.05h-4.53v-16.54c0-2.71.87-4.86,2.6-6.44s4.21-2.37,7.43-2.37c1.87,0,3.56.36,5.09,1.09s2.72,1.82,3.59,3.28,1.25,3.21,1.15,5.24l-4.58.36.05-.71c0-1.56-.47-2.8-1.42-3.71-.95-.92-2.27-1.37-3.97-1.37s-3.05.41-3.97,1.22-1.37,1.87-1.37,3.16v1.02l6.11,1.02c3.09.51,5.4,1.42,6.95,2.72,1.54,1.31,2.32,3.13,2.32,5.47h-.02Zm-4.58-.5c0-1.15-.48-2.02-1.45-2.6s-2.28-1.02-3.94-1.32l-5.39-.87v1.43c0,2.04.57,3.68,1.71,4.94s2.59,1.88,4.35,1.88c1.46,0,2.61-.31,3.46-.94.85-.63,1.27-1.47,1.27-2.52h-.01Z"/>
    <path class="cls-1" d="m2433.49,5024.14c0,.92-.31,1.69-.94,2.32s-1.4.94-2.32.94-1.64-.31-2.27-.94-.94-1.4-.94-2.32.31-1.64.94-2.29c.63-.64,1.38-.97,2.27-.97s1.69.32,2.32.97.94,1.41.94,2.29Zm-.87,31.76h-4.83v-24.53h4.83v24.53Z"/>
    <path class="cls-1" d="m2424.88,5035.64h-4.48v11.71c0,2.88-.84,5.16-2.52,6.82s-3.98,2.49-6.9,2.49c-1.7,0-3.22-.4-4.58-1.2s-2.41-1.92-3.16-3.38-1.07-3.15-.97-5.09l4.63-.46c-.1,1.73.23,3.11.99,4.15s1.84,1.55,3.23,1.55,2.48-.41,3.26-1.22,1.17-2,1.17-3.56v-11.81h-12.42v-4.28h12.42v-7.33h4.83v7.33h4.48v4.28h.02Z"/>
    <path class="cls-1" d="m2400.55,5043.69c0,2.48-.51,4.7-1.53,6.67-1.02,1.97-2.46,3.51-4.33,4.63s-4.02,1.68-6.46,1.68c-1.93,0-3.72-.38-5.37-1.15-1.65-.76-3-1.84-4.07-3.23s-1.74-2.99-2.01-4.78l4.58-.81c.24,1.7.99,3.06,2.26,4.1s2.77,1.55,4.5,1.55c2.17,0,3.97-.71,5.39-2.11,1.42-1.41,2.26-3.3,2.49-5.67h-18.53v-2.34c0-2.24.45-4.24,1.35-6.01.9-1.76,2.18-3.14,3.84-4.12,1.66-.98,3.6-1.48,5.8-1.48,2.38,0,4.48.57,6.31,1.71s3.25,2.71,4.25,4.71,1.5,4.22,1.5,6.67l.03-.02Zm-4.78-3.01c-.44-1.76-1.31-3.18-2.62-4.25s-2.86-1.6-4.66-1.6c-1.93,0-3.49.56-4.68,1.68s-1.82,2.51-1.88,4.17h13.84,0Z"/>
    <path class="cls-1" d="m2374.45,5043.64c0,2.41-.49,4.61-1.48,6.59-.98,1.99-2.36,3.55-4.12,4.71-1.76,1.15-3.75,1.73-5.95,1.73-1.87,0-3.51-.36-4.94-1.07-1.42-.71-2.63-1.71-3.61-3v3.31h-4.83v-35.63h4.83v14.4c.98-1.29,2.2-2.29,3.64-3s3.08-1.07,4.91-1.07c2.21,0,4.19.58,5.95,1.73s3.14,2.72,4.12,4.71c.98,1.99,1.48,4.18,1.48,6.59h0Zm-4.84,0c0-2.44-.72-4.45-2.16-6.03-1.44-1.58-3.28-2.37-5.52-2.37-1.46,0-2.76.37-3.92,1.09-1.15.73-2.05,1.73-2.7,3-.64,1.27-.97,2.71-.97,4.3,0,2.44.71,4.45,2.14,6.03,1.42,1.58,3.24,2.37,5.45,2.37s4.12-.79,5.55-2.37c1.42-1.58,2.14-3.59,2.14-6.03h-.01Z"/>
    <path class="cls-1" d="m2345.79,5052.95c0,.95-.32,1.75-.97,2.39s-1.44.97-2.39.97c-.88,0-1.64-.32-2.26-.97-.63-.64-.94-1.44-.94-2.39,0-.85.31-1.58.94-2.21s1.38-.94,2.26-.94c.95,0,1.75.3,2.39.92.64.61.97,1.36.97,2.24h0Z"/>
  </g>
  <g>
    <path class="cls-1" d="m2689.79,5165.53h-4.83l-.1-26.72-11.35,26.72h-5.14l-11.5-27.03v27.03h-4.83v-35.63h6.11l12.77,30.13,12.83-30.13h6.06v35.63h-.02Z"/>
    <path class="cls-1" d="m2648,5153.32c0,2.48-.51,4.7-1.53,6.67-1.02,1.97-2.46,3.51-4.33,4.63s-4.02,1.68-6.46,1.68c-1.93,0-3.72-.38-5.37-1.15-1.65-.76-3-1.84-4.07-3.23s-1.74-2.99-2.01-4.79l4.58-.81c.24,1.7.99,3.06,2.26,4.1s2.77,1.55,4.5,1.55c2.17,0,3.97-.7,5.39-2.11,1.42-1.41,2.26-3.3,2.49-5.67h-18.53v-2.34c0-2.24.45-4.24,1.35-6,.9-1.76,2.18-3.14,3.84-4.12,1.66-.98,3.6-1.48,5.8-1.48,2.38,0,4.48.57,6.31,1.71s3.25,2.71,4.25,4.71,1.5,4.22,1.5,6.67l.03-.02Zm-4.78-3c-.44-1.76-1.31-3.18-2.62-4.25s-2.86-1.6-4.66-1.6c-1.93,0-3.49.56-4.68,1.68s-1.82,2.51-1.88,4.17h13.84,0Z"/>
    <path class="cls-1" d="m2622.46,5171.03c-.24.07-.63.1-1.17.1-1.87,0-3.37-.74-4.5-2.21-1.14-1.48-1.71-3.32-1.71-5.52,0-1.19.31-2.15.94-2.88s1.48-1.09,2.57-1.09c.95,0,1.74.3,2.37.92.63.61.94,1.36.94,2.24,0,.95-.31,1.74-.94,2.37s-1.42.94-2.37.94c-.17,0-.42-.03-.76-.1.2.95.61,1.69,1.22,2.21.61.53,1.36.79,2.24.79.27,0,.49-.02.66-.05l.51,2.29h0Z"/>
    <path class="cls-1" d="m2602,5145.28h-4.48v11.71c0,2.88-.84,5.16-2.52,6.82-1.68,1.66-3.98,2.49-6.9,2.49-1.7,0-3.22-.4-4.58-1.2s-2.41-1.92-3.16-3.38-1.07-3.16-.97-5.09l4.63-.46c-.1,1.73.23,3.11.99,4.15s1.84,1.55,3.23,1.55,2.48-.41,3.26-1.22,1.17-2,1.17-3.56v-11.81h-12.42v-4.28h12.42v-7.33h4.83v7.33h4.48v4.28h.02Z"/>
    <path class="cls-1" d="m2578.53,5141l-7.53,24.53h-4.83l-5.24-17.25-5.24,17.25h-4.73l-7.63-24.53h4.84l5.24,17.71,5.34-17.71h4.43l5.34,17.66,5.24-17.66h4.78-.01Z"/>
    <path class="cls-1" d="m2540.97,5133.78c0,.92-.31,1.69-.94,2.32s-1.4.94-2.32.94-1.64-.31-2.27-.94-.94-1.4-.94-2.32.31-1.65.94-2.29,1.38-.97,2.27-.97,1.69.32,2.32.97.94,1.41.94,2.29Zm-.86,31.75h-4.83v-24.53h4.83v24.53Z"/>
    <path class="cls-1" d="m2531.86,5156.83c-.47,2.82-1.71,5.1-3.72,6.85-2,1.75-4.46,2.62-7.38,2.62s-5.35-.75-7.2-2.24c-1.85-1.49-2.77-3.44-2.77-5.85,0-4.65,3.29-7.29,9.87-7.94,1.8-.17,3.03-.5,3.69-.99s.99-1.16.99-2.01c0-.78-.38-1.4-1.15-1.86-.76-.46-1.77-.69-3.03-.69s-2.39.37-3.31,1.12c-.92.75-1.53,1.8-1.83,3.16l-4.22-1.32c.54-2.27,1.68-4.08,3.41-5.42s3.71-2.01,5.95-2.01c1.7,0,3.23.3,4.61.92s2.45,1.45,3.23,2.52,1.17,2.28,1.17,3.64c0,2.17-.74,3.91-2.21,5.22-1.48,1.31-3.71,2.11-6.69,2.42-2.1.24-3.58.65-4.43,1.25-.85.59-1.27,1.33-1.27,2.21,0,1.02.46,1.84,1.38,2.47.92.63,2.19.94,3.82.94,1.8,0,3.27-.54,4.4-1.6,1.14-1.07,1.84-2.49,2.11-4.25l4.58.87v-.03Z"/>
    <path class="cls-1" d="m2510.23,5145.28h-4.48v11.71c0,2.88-.84,5.16-2.52,6.82-1.68,1.66-3.98,2.49-6.9,2.49-1.7,0-3.22-.4-4.58-1.2s-2.41-1.92-3.16-3.38-1.07-3.16-.97-5.09l4.63-.46c-.1,1.73.23,3.11.99,4.15s1.84,1.55,3.23,1.55,2.48-.41,3.26-1.22,1.17-2,1.17-3.56v-11.81h-12.42v-4.28h12.42v-7.33h4.83v7.33h4.48v4.28h.02Z"/>
    <path class="cls-1" d="m2484.89,5133.78c0,.92-.31,1.69-.94,2.32s-1.4.94-2.32.94-1.64-.31-2.27-.94-.94-1.4-.94-2.32.31-1.65.94-2.29,1.38-.97,2.27-.97,1.69.32,2.32.97.94,1.41.94,2.29Zm-.87,31.75h-4.83v-24.53h4.83v24.53Z"/>
    <path class="cls-1" d="m2474.1,5165.53h-4.83v-13.23c0-2.38-.57-4.25-1.71-5.62s-2.67-2.06-4.61-2.06c-3.46,0-5.19,2-5.19,6.01v14.91h-4.84v-15.88c0-2.92.76-5.22,2.27-6.9s3.61-2.52,6.29-2.52c1.7,0,3.2.32,4.5.97,1.31.64,2.4,1.53,3.28,2.65v-2.85h4.83v24.53h.01Z"/>
    <path class="cls-1" d="m2449.21,5152.61c0,2.24-.49,4.28-1.48,6.13-.98,1.85-2.35,3.31-4.1,4.38s-3.72,1.6-5.93,1.6c-3.33,0-5.94-1.25-7.84-3.77v3.97c0,2.61.7,4.68,2.11,6.21,1.41,1.53,3.27,2.29,5.57,2.29,2.1,0,3.78-.65,5.04-1.96s1.85-2.98,1.78-5.01l4.73.61c.03,2.14-.44,4-1.42,5.6s-2.36,2.83-4.12,3.72c-1.76.88-3.75,1.32-5.96,1.32-2.48,0-4.66-.55-6.57-1.65-1.9-1.1-3.38-2.63-4.43-4.58s-1.58-4.18-1.58-6.69v-23.77h4.83v3.21c1.93-2.54,4.55-3.83,7.84-3.87,2.21,0,4.18.55,5.93,1.65s3.11,2.59,4.1,4.45c.98,1.87,1.48,3.92,1.48,6.16h.02Zm-4.83,0c0-2.21-.68-4.03-2.04-5.47-1.36-1.44-3.1-2.16-5.24-2.16s-3.88.72-5.22,2.16-2.01,3.27-2.01,5.47.67,4.02,2.01,5.45c1.34,1.42,3.08,2.14,5.22,2.14s3.89-.71,5.24-2.14c1.36-1.42,2.04-3.24,2.04-5.45Z"/>
    <path class="cls-1" d="m2408.39,5165.53h-4.78v-3.36c-.98,1.29-2.2,2.3-3.64,3.03s-3.08,1.09-4.91,1.09c-2.21,0-4.19-.58-5.95-1.73s-3.14-2.72-4.12-4.71c-.98-1.99-1.48-4.18-1.48-6.59s.49-4.61,1.48-6.59c.98-1.98,2.36-3.55,4.12-4.71,1.76-1.15,3.75-1.73,5.95-1.73,1.87,0,3.51.37,4.94,1.09,1.42.73,2.63,1.76,3.61,3.08v-14.51h4.78v35.63h0Zm-4.78-12.26c0-2.41-.71-4.4-2.14-5.98s-3.26-2.37-5.5-2.37-4.07.79-5.5,2.37-2.14,3.57-2.14,5.98.71,4.45,2.14,6.01,3.26,2.34,5.5,2.34,4.07-.78,5.5-2.34,2.14-3.56,2.14-6.01Z"/>
    <path class="cls-1" d="m2381.17,5153.32c0,2.48-.51,4.7-1.53,6.67-1.02,1.97-2.46,3.51-4.33,4.63s-4.02,1.68-6.46,1.68c-1.93,0-3.72-.38-5.37-1.15-1.65-.76-3-1.84-4.07-3.23s-1.74-2.99-2.01-4.79l4.58-.81c.24,1.7.99,3.06,2.26,4.1s2.77,1.55,4.5,1.55c2.17,0,3.97-.7,5.39-2.11,1.42-1.41,2.26-3.3,2.49-5.67h-18.53v-2.34c0-2.24.45-4.24,1.35-6,.9-1.76,2.18-3.14,3.84-4.12,1.66-.98,3.6-1.48,5.8-1.48,2.38,0,4.48.57,6.31,1.71s3.25,2.71,4.25,4.71,1.5,4.22,1.5,6.67l.03-.02Zm-4.79-3c-.44-1.76-1.31-3.18-2.62-4.25s-2.86-1.6-4.66-1.6c-1.93,0-3.49.56-4.68,1.68s-1.82,2.51-1.88,4.17h13.84,0Z"/>
    <path class="cls-1" d="m2353.68,5165.53h-4.83v-35.63h4.83v35.63Z"/>
    <path class="cls-1" d="m2345.18,5153.32c0,2.44-.54,4.65-1.63,6.62-1.08,1.97-2.6,3.52-4.53,4.66s-4.14,1.71-6.62,1.71-4.67-.57-6.57-1.71-3.38-2.69-4.45-4.66-1.6-4.17-1.6-6.62.53-4.61,1.6-6.62c1.07-2,2.56-3.58,4.48-4.73s4.1-1.73,6.54-1.73,4.68.58,6.62,1.73c1.93,1.15,3.44,2.73,4.53,4.73s1.63,4.21,1.63,6.62Zm-4.83,0c0-1.59-.34-3.04-1.02-4.33s-1.62-2.3-2.83-3.03c-1.2-.73-2.55-1.09-4.05-1.09s-2.84.37-4.05,1.09-2.14,1.74-2.8,3.03c-.66,1.29-.99,2.73-.99,4.33,0,2.41.74,4.4,2.21,5.98s3.35,2.37,5.62,2.37c1.49,0,2.84-.36,4.05-1.09s2.15-1.73,2.83-3c.68-1.27,1.02-2.69,1.02-4.25h.01Z"/>
    <path class="cls-1" d="m2318.72,5141l-7.53,24.53h-4.83l-5.24-17.25-5.24,17.25h-4.73l-7.63-24.53h4.84l5.24,17.71,5.34-17.71h4.43l5.34,17.66,5.24-17.66h4.78-.01Z"/>
    <path class="cls-1" d="m2284.72,5162.58c0,.95-.32,1.75-.97,2.39-.64.64-1.44.97-2.39.97-.88,0-1.64-.32-2.26-.97-.63-.64-.94-1.44-.94-2.39,0-.85.31-1.58.94-2.21s1.38-.94,2.26-.94c.95,0,1.75.3,2.39.92s.97,1.36.97,2.24h0Z"/>
  </g>
  <g>
    <path class="cls-1" d="m2689.79,5275.17h-4.83v-15.88h-19.59v15.88h-4.83v-35.63h4.83v15.07h19.59v-15.07h4.83v35.63Z"/>
    <path class="cls-1" d="m2655.84,5243.41c0,.92-.31,1.69-.94,2.32s-1.4.94-2.32.94-1.64-.31-2.27-.94c-.63-.63-.94-1.4-.94-2.32s.31-1.65.94-2.29,1.38-.97,2.27-.97,1.69.32,2.32.97c.63.65.94,1.41.94,2.29Zm-.86,31.76h-4.83v-24.53h4.83v24.53Z"/>
    <path class="cls-1" d="m2645.05,5275.17h-4.68v-13.74c0-2.34-.45-4.12-1.35-5.34-.9-1.22-2.11-1.83-3.64-1.83-1.39,0-2.42.4-3.08,1.2-.66.8-.99,2.1-.99,3.89v15.83h-4.63l.1-14.4c-.1-2.14-.59-3.76-1.48-4.86-.88-1.1-2.05-1.65-3.51-1.65s-2.42.4-3.08,1.2c-.66.8-.99,2.1-.99,3.89v15.83h-4.68l.1-17c0-2.75.63-4.82,1.88-6.21,1.26-1.39,3.04-2.09,5.34-2.09,1.6,0,2.99.38,4.17,1.15,1.19.76,2.14,1.84,2.85,3.23.51-1.42,1.33-2.51,2.47-3.26s2.54-1.12,4.2-1.12c1.39,0,2.62.32,3.69.97,1.07.65,1.94,1.54,2.62,2.7v-2.85h4.68v24.48-.02Z"/>
    <path class="cls-1" d="m2609.63,5280.66c-.24.07-.63.1-1.17.1-1.87,0-3.37-.74-4.5-2.21-1.14-1.48-1.71-3.32-1.71-5.52,0-1.19.31-2.15.94-2.88s1.48-1.09,2.57-1.09c.95,0,1.74.31,2.37.92.63.61.94,1.36.94,2.24,0,.95-.31,1.74-.94,2.37s-1.42.94-2.37.94c-.17,0-.42-.04-.76-.1.2.95.61,1.69,1.22,2.21.61.53,1.36.79,2.24.79.27,0,.49-.02.66-.05l.51,2.29h0Z"/>
    <path class="cls-1" d="m2586.98,5275.17h-4.83v-13.23c0-2.38-.57-4.25-1.71-5.62s-2.67-2.06-4.61-2.06c-3.46,0-5.19,2-5.19,6.01v14.91h-4.84v-15.88c0-2.92.76-5.22,2.27-6.9s3.61-2.52,6.29-2.52c1.7,0,3.2.32,4.5.97,1.31.65,2.4,1.53,3.28,2.65v-13.95h4.83v35.63h.01Z"/>
    <path class="cls-1" d="m2562.1,5262.95c0,2.44-.54,4.65-1.63,6.62-1.08,1.97-2.6,3.52-4.53,4.66s-4.14,1.71-6.62,1.71-4.67-.57-6.57-1.71-3.38-2.69-4.45-4.66-1.6-4.17-1.6-6.62.53-4.61,1.6-6.62c1.07-2,2.56-3.58,4.48-4.73s4.1-1.73,6.54-1.73,4.68.58,6.62,1.73c1.93,1.15,3.44,2.73,4.53,4.73s1.63,4.21,1.63,6.62Zm-4.84,0c0-1.59-.34-3.04-1.02-4.33s-1.62-2.3-2.83-3.03c-1.2-.73-2.55-1.09-4.05-1.09s-2.84.37-4.05,1.09-2.14,1.74-2.8,3.03c-.66,1.29-.99,2.73-.99,4.33,0,2.41.74,4.4,2.21,5.98s3.35,2.37,5.62,2.37c1.49,0,2.84-.37,4.05-1.09,1.21-.73,2.15-1.73,2.83-3,.68-1.27,1.02-2.69,1.02-4.25h.01Z"/>
    <path class="cls-1" d="m2532.99,5275.17h-4.83v-35.63h4.83v35.63Z"/>
    <path class="cls-1" d="m2524.49,5262.9c0,2.41-.49,4.61-1.48,6.59-.98,1.98-2.36,3.55-4.12,4.71-1.76,1.15-3.75,1.73-5.95,1.73-1.87,0-3.51-.36-4.94-1.07-1.42-.71-2.63-1.71-3.61-3v3.31h-4.83v-35.63h4.83v14.4c.98-1.29,2.2-2.29,3.64-3s3.08-1.07,4.91-1.07c2.21,0,4.19.58,5.95,1.73s3.14,2.72,4.12,4.71,1.48,4.18,1.48,6.59h0Zm-4.84,0c0-2.44-.72-4.45-2.16-6.03-1.44-1.58-3.28-2.37-5.52-2.37-1.46,0-2.76.37-3.92,1.09-1.15.73-2.05,1.73-2.7,3-.64,1.27-.97,2.71-.97,4.3,0,2.44.71,4.45,2.14,6.03s3.24,2.37,5.45,2.37,4.12-.79,5.55-2.37,2.14-3.59,2.14-6.03h-.01Z"/>
    <path class="cls-1" d="m2495.32,5243.41c0,.92-.31,1.69-.94,2.32s-1.4.94-2.32.94-1.64-.31-2.27-.94c-.63-.63-.94-1.4-.94-2.32s.31-1.65.94-2.29,1.38-.97,2.27-.97,1.69.32,2.32.97c.63.65.94,1.41.94,2.29Zm-.86,31.76h-4.83v-24.53h4.83v24.53Z"/>
    <path class="cls-1" d="m2484.53,5275.17h-4.83v-13.23c0-2.38-.57-4.25-1.71-5.62s-2.67-2.06-4.61-2.06c-3.46,0-5.19,2-5.19,6.01v14.91h-4.84v-15.88c0-2.92.76-5.22,2.27-6.9s3.61-2.52,6.29-2.52c1.7,0,3.2.32,4.5.97,1.31.65,2.4,1.53,3.28,2.65v-2.85h4.83v24.53h.01Z"/>
    <path class="cls-1" d="m2459.65,5262.24c0,2.24-.49,4.28-1.48,6.13-.98,1.85-2.35,3.31-4.1,4.38s-3.72,1.6-5.93,1.6c-3.33,0-5.94-1.25-7.84-3.77v3.97c0,2.61.7,4.68,2.11,6.21,1.41,1.53,3.27,2.29,5.57,2.29,2.1,0,3.78-.65,5.04-1.96s1.85-2.98,1.78-5.01l4.73.61c.03,2.14-.44,4-1.42,5.6s-2.36,2.83-4.12,3.72c-1.76.88-3.75,1.32-5.96,1.32-2.48,0-4.66-.55-6.57-1.65-1.9-1.1-3.38-2.63-4.43-4.58s-1.58-4.18-1.58-6.69v-23.77h4.83v3.21c1.93-2.54,4.55-3.83,7.84-3.87,2.21,0,4.18.55,5.93,1.65s3.11,2.59,4.1,4.45c.98,1.87,1.48,3.92,1.48,6.16h.02Zm-4.84,0c0-2.21-.68-4.03-2.04-5.47-1.36-1.44-3.1-2.16-5.24-2.16s-3.88.72-5.22,2.16-2.01,3.27-2.01,5.47.67,4.02,2.01,5.45c1.34,1.42,3.08,2.14,5.22,2.14s3.89-.71,5.24-2.14c1.36-1.43,2.04-3.24,2.04-5.45Z"/>
    <path class="cls-1" d="m2420.2,5262.95c0,2.48-.51,4.7-1.53,6.67-1.02,1.97-2.46,3.51-4.33,4.63s-4.02,1.68-6.46,1.68c-1.93,0-3.72-.38-5.37-1.14s-3-1.84-4.07-3.23-1.74-2.99-2.01-4.78l4.58-.81c.24,1.7.99,3.06,2.26,4.1s2.77,1.55,4.5,1.55c2.17,0,3.97-.7,5.39-2.11s2.26-3.3,2.49-5.68h-18.53v-2.34c0-2.24.45-4.24,1.35-6,.9-1.76,2.18-3.14,3.84-4.12,1.66-.98,3.6-1.48,5.8-1.48,2.38,0,4.48.57,6.31,1.71s3.25,2.71,4.25,4.71,1.5,4.22,1.5,6.67l.03-.03Zm-4.78-3c-.44-1.76-1.31-3.18-2.62-4.25s-2.86-1.6-4.66-1.6c-1.93,0-3.49.56-4.68,1.68s-1.82,2.51-1.88,4.17h13.84,0Z"/>
    <path class="cls-1" d="m2392.72,5275.17h-4.68v-13.74c0-2.34-.45-4.12-1.35-5.34-.9-1.22-2.11-1.83-3.64-1.83-1.39,0-2.42.4-3.08,1.2-.66.8-.99,2.1-.99,3.89v15.83h-4.63l.1-14.4c-.1-2.14-.59-3.76-1.48-4.86-.88-1.1-2.05-1.65-3.51-1.65s-2.42.4-3.08,1.2c-.66.8-.99,2.1-.99,3.89v15.83h-4.68l.1-17c0-2.75.63-4.82,1.88-6.21,1.26-1.39,3.04-2.09,5.34-2.09,1.6,0,2.99.38,4.17,1.15,1.19.76,2.14,1.84,2.85,3.23.51-1.42,1.33-2.51,2.47-3.26s2.54-1.12,4.2-1.12c1.39,0,2.62.32,3.69.97,1.07.65,1.94,1.54,2.62,2.7v-2.85h4.68v24.48-.02Z"/>
    <path class="cls-1" d="m2355.62,5286.62h-4.83v-14.76c-.98,1.29-2.19,2.29-3.61,3-1.43.71-3.07,1.07-4.94,1.07-2.21,0-4.19-.58-5.95-1.73s-3.14-2.72-4.12-4.71c-.98-1.99-1.48-4.18-1.48-6.59s.49-4.61,1.48-6.59c.98-1.99,2.36-3.55,4.12-4.71,1.76-1.15,3.75-1.73,5.95-1.73,1.87,0,3.51.36,4.94,1.07,1.42.71,2.63,1.71,3.61,3v-3.31h4.83v35.98h0Zm-4.84-23.72c0-2.44-.71-4.45-2.14-6.03-1.42-1.58-3.24-2.37-5.45-2.37s-4.12.79-5.55,2.37-2.14,3.59-2.14,6.03.72,4.45,2.16,6.03,3.28,2.37,5.52,2.37c1.46,0,2.77-.37,3.92-1.09,1.15-.73,2.05-1.73,2.7-3,.64-1.27.97-2.71.97-4.3h.01Z"/>
    <path class="cls-1" d="m2329.15,5254.91h-4.48v11.71c0,2.88-.84,5.16-2.52,6.82-1.68,1.66-3.98,2.49-6.9,2.49-1.7,0-3.22-.4-4.58-1.2s-2.41-1.93-3.16-3.38c-.75-1.46-1.07-3.16-.97-5.09l4.63-.46c-.1,1.73.23,3.11.99,4.15s1.84,1.55,3.23,1.55,2.48-.41,3.26-1.22,1.17-2,1.17-3.56v-11.81h-12.42v-4.28h12.42v-7.33h4.83v7.33h4.48v4.28h.02Z"/>
    <path class="cls-1" d="m2303.81,5243.41c0,.92-.31,1.69-.94,2.32s-1.4.94-2.32.94-1.64-.31-2.27-.94c-.63-.63-.94-1.4-.94-2.32s.31-1.65.94-2.29,1.38-.97,2.27-.97,1.69.32,2.32.97c.63.65.94,1.41.94,2.29Zm-.87,31.76h-4.83v-24.53h4.83v24.53Z"/>
    <path class="cls-1" d="m2293.02,5275.17h-4.83v-13.23c0-2.38-.57-4.25-1.71-5.62s-2.67-2.06-4.61-2.06c-3.46,0-5.19,2-5.19,6.01v14.91h-4.84v-15.88c0-2.92.76-5.22,2.27-6.9s3.61-2.52,6.29-2.52c1.7,0,3.2.32,4.5.97,1.31.65,2.4,1.53,3.28,2.65v-2.85h4.83v24.53h.01Z"/>
    <path class="cls-1" d="m2268.18,5262.95c0,2.48-.51,4.7-1.53,6.67-1.02,1.97-2.46,3.51-4.33,4.63s-4.02,1.68-6.46,1.68c-1.93,0-3.72-.38-5.37-1.14s-3-1.84-4.07-3.23-1.74-2.99-2.01-4.78l4.58-.81c.24,1.7.99,3.06,2.26,4.1s2.77,1.55,4.5,1.55c2.17,0,3.97-.7,5.39-2.11s2.26-3.3,2.49-5.68h-18.53v-2.34c0-2.24.45-4.24,1.35-6,.9-1.76,2.18-3.14,3.84-4.12,1.66-.98,3.6-1.48,5.8-1.48,2.38,0,4.48.57,6.31,1.71s3.25,2.71,4.25,4.71,1.5,4.22,1.5,6.67l.03-.03Zm-4.78-3c-.44-1.76-1.31-3.18-2.62-4.25s-2.86-1.6-4.66-1.6c-1.93,0-3.49.56-4.68,1.68s-1.82,2.51-1.88,4.17h13.84,0Z"/>
    <path class="cls-1" d="m2242.48,5266.46c-.47,2.82-1.71,5.1-3.72,6.85-2,1.75-4.46,2.62-7.38,2.62s-5.35-.75-7.2-2.24c-1.85-1.49-2.77-3.44-2.77-5.85,0-4.65,3.29-7.29,9.87-7.94,1.8-.17,3.03-.5,3.69-.99s.99-1.16.99-2.01c0-.78-.38-1.4-1.15-1.86-.76-.46-1.77-.69-3.03-.69s-2.39.38-3.31,1.12-1.53,1.8-1.83,3.15l-4.22-1.32c.54-2.27,1.68-4.08,3.41-5.42s3.71-2.01,5.95-2.01c1.7,0,3.23.31,4.61.92,1.37.61,2.45,1.45,3.23,2.52s1.17,2.28,1.17,3.64c0,2.17-.74,3.91-2.21,5.22-1.48,1.31-3.71,2.11-6.69,2.42-2.1.24-3.58.65-4.43,1.25-.85.59-1.27,1.33-1.27,2.21,0,1.02.46,1.84,1.38,2.47.92.63,2.19.94,3.82.94,1.8,0,3.27-.54,4.4-1.6,1.14-1.07,1.84-2.48,2.11-4.25l4.58.87v-.02Z"/>
    <path class="cls-1" d="m2219.73,5266.46c-.47,2.82-1.71,5.1-3.72,6.85-2,1.75-4.46,2.62-7.38,2.62s-5.35-.75-7.2-2.24c-1.85-1.49-2.77-3.44-2.77-5.85,0-4.65,3.29-7.29,9.87-7.94,1.8-.17,3.03-.5,3.69-.99s.99-1.16.99-2.01c0-.78-.38-1.4-1.15-1.86-.76-.46-1.77-.69-3.03-.69s-2.39.38-3.31,1.12-1.53,1.8-1.83,3.15l-4.22-1.32c.54-2.27,1.68-4.08,3.41-5.42s3.71-2.01,5.95-2.01c1.7,0,3.23.31,4.61.92,1.37.61,2.45,1.45,3.23,2.52s1.17,2.28,1.17,3.64c0,2.17-.74,3.91-2.21,5.22-1.48,1.31-3.71,2.11-6.69,2.42-2.1.24-3.58.65-4.43,1.25-.85.59-1.27,1.33-1.27,2.21,0,1.02.46,1.84,1.38,2.47.92.63,2.19.94,3.82.94,1.8,0,3.27-.54,4.4-1.6,1.14-1.07,1.84-2.48,2.11-4.25l4.58.87v-.02Z"/>
    <path class="cls-1" d="m2184.56,5268.6c0,1.22-.31,2.39-.92,3.51-.61,1.12-1.55,2.04-2.83,2.75s-2.82,1.07-4.66,1.07c-1.66,0-3.08-.35-4.25-1.04s-2.09-1.62-2.77-2.77v3.05h-4.53v-16.54c0-2.71.87-4.86,2.6-6.44s4.21-2.37,7.43-2.37c1.87,0,3.56.37,5.09,1.09,1.53.73,2.72,1.82,3.59,3.28s1.25,3.21,1.15,5.24l-4.58.36.05-.71c0-1.56-.47-2.8-1.42-3.72-.95-.92-2.27-1.37-3.97-1.37s-3.05.41-3.97,1.22-1.37,1.87-1.37,3.16v1.02l6.11,1.02c3.09.51,5.4,1.42,6.95,2.72,1.54,1.31,2.32,3.13,2.32,5.47h-.02Zm-4.58-.51c0-1.15-.48-2.02-1.45-2.6s-2.28-1.02-3.94-1.32l-5.39-.87v1.42c0,2.04.57,3.68,1.71,4.94s2.59,1.88,4.35,1.88c1.46,0,2.61-.31,3.46-.94.85-.63,1.27-1.47,1.27-2.52h-.01Z"/>
    <path class="cls-1" d="m2159.57,5275.17h-4.78v-3.36c-.98,1.29-2.2,2.3-3.64,3.03s-3.08,1.09-4.91,1.09c-2.21,0-4.19-.58-5.95-1.73s-3.14-2.72-4.12-4.71c-.98-1.99-1.48-4.18-1.48-6.59s.49-4.61,1.48-6.59c.98-1.99,2.36-3.55,4.12-4.71,1.76-1.15,3.75-1.73,5.95-1.73,1.87,0,3.51.37,4.94,1.09,1.42.73,2.63,1.76,3.61,3.08v-14.51h4.78v35.63h0Zm-4.78-12.27c0-2.41-.71-4.4-2.14-5.98-1.42-1.58-3.26-2.37-5.5-2.37s-4.07.79-5.5,2.37c-1.42,1.58-2.14,3.57-2.14,5.98s.71,4.45,2.14,6.01,3.26,2.34,5.5,2.34,4.07-.78,5.5-2.34,2.14-3.56,2.14-6.01Z"/>
    <path class="cls-1" d="m2132.34,5262.95c0,2.44-.54,4.65-1.63,6.62-1.08,1.97-2.6,3.52-4.53,4.66s-4.14,1.71-6.62,1.71-4.67-.57-6.57-1.71-3.38-2.69-4.45-4.66-1.6-4.17-1.6-6.62.53-4.61,1.6-6.62c1.07-2,2.56-3.58,4.48-4.73s4.1-1.73,6.54-1.73,4.68.58,6.62,1.73c1.93,1.15,3.44,2.73,4.53,4.73s1.63,4.21,1.63,6.62Zm-4.83,0c0-1.59-.34-3.04-1.02-4.33s-1.62-2.3-2.83-3.03c-1.2-.73-2.55-1.09-4.05-1.09s-2.84.37-4.05,1.09-2.14,1.74-2.8,3.03c-.66,1.29-.99,2.73-.99,4.33,0,2.41.74,4.4,2.21,5.98s3.35,2.37,5.62,2.37c1.49,0,2.84-.37,4.05-1.09,1.21-.73,2.15-1.73,2.83-3,.68-1.27,1.02-2.69,1.02-4.25h.01Z"/>
    <path class="cls-1" d="m2106.19,5250.64l-9.87,24.53h-5.09l-9.82-24.53h5.09l7.28,18.17,7.33-18.17h5.09-.01Z"/>
    <path class="cls-1" d="m2080.74,5262.95c0,2.48-.51,4.7-1.53,6.67-1.02,1.97-2.46,3.51-4.33,4.63s-4.02,1.68-6.46,1.68c-1.93,0-3.72-.38-5.37-1.14s-3-1.84-4.07-3.23-1.74-2.99-2.01-4.78l4.58-.81c.24,1.7.99,3.06,2.26,4.1s2.77,1.55,4.5,1.55c2.17,0,3.97-.7,5.39-2.11s2.26-3.3,2.49-5.68h-18.53v-2.34c0-2.24.45-4.24,1.35-6,.9-1.76,2.18-3.14,3.84-4.12,1.66-.98,3.6-1.48,5.8-1.48,2.38,0,4.48.57,6.31,1.71s3.25,2.71,4.25,4.71,1.5,4.22,1.5,6.67l.03-.03Zm-4.79-3c-.44-1.76-1.31-3.18-2.62-4.25s-2.86-1.6-4.66-1.6c-1.93,0-3.49.56-4.68,1.68s-1.82,2.51-1.88,4.17h13.84,0Z"/>
    <path class="cls-1" d="m2054.88,5272.22c0,.95-.32,1.75-.97,2.39-.64.64-1.44.97-2.39.97-.88,0-1.64-.32-2.26-.97-.63-.64-.94-1.44-.94-2.39,0-.85.31-1.59.94-2.21.63-.63,1.38-.94,2.26-.94.95,0,1.75.31,2.39.92s.97,1.36.97,2.24h0Z"/>
  </g>
  <g>
    <path class="cls-1" d="m2690.66,5367.09c0,3.53-.75,6.69-2.26,9.49s-3.65,5-6.41,6.59-5.95,2.39-9.54,2.39c-2.88,0-5.54-.58-7.96-1.76-2.43-1.17-4.4-2.81-5.93-4.91s-2.44-4.48-2.75-7.13l4.78-.97c.2,2,.86,3.77,1.96,5.29s2.52,2.71,4.25,3.56,3.63,1.27,5.7,1.27c2.65,0,4.98-.61,7-1.83s3.58-2.93,4.68-5.14c1.1-2.21,1.65-4.73,1.65-7.58,0-2.41-.54-4.63-1.63-6.67-1.08-2.04-2.6-3.66-4.55-4.86-1.95-1.2-4.18-1.81-6.69-1.81-2.85,0-5.23.78-7.13,2.34s-3.09,3.63-3.56,6.21l-4.53-1.38c.44-2.34,1.36-4.4,2.75-6.18,1.39-1.78,3.16-3.16,5.29-4.15,2.14-.98,4.53-1.48,7.18-1.48,3.49,0,6.58.81,9.26,2.44s4.76,3.87,6.23,6.72c1.48,2.85,2.21,6.02,2.21,9.52v.03Z"/>
    <path class="cls-1" d="m2652.99,5378.24c0,1.22-.31,2.39-.92,3.51-.61,1.12-1.55,2.04-2.83,2.75s-2.82,1.07-4.66,1.07c-1.66,0-3.08-.35-4.25-1.04s-2.09-1.62-2.77-2.77v3.05h-4.53v-16.54c0-2.71.87-4.86,2.6-6.44s4.21-2.37,7.43-2.37c1.87,0,3.56.36,5.09,1.09s2.72,1.82,3.59,3.28,1.25,3.21,1.15,5.24l-4.58.36.05-.71c0-1.56-.47-2.8-1.42-3.71-.95-.92-2.27-1.38-3.97-1.38s-3.05.41-3.97,1.22-1.37,1.87-1.37,3.16v1.02l6.11,1.02c3.09.51,5.4,1.42,6.95,2.72s2.32,3.13,2.32,5.47h-.02Zm-4.58-.51c0-1.15-.48-2.02-1.45-2.6s-2.28-1.02-3.94-1.32l-5.39-.87v1.42c0,2.04.57,3.68,1.71,4.94s2.59,1.88,4.35,1.88c1.46,0,2.61-.31,3.46-.94.85-.63,1.27-1.47,1.27-2.52h-.01Z"/>
    <path class="cls-1" d="m2628,5384.8h-4.83v-35.63h4.83v35.63Z"/>
    <path class="cls-1" d="m2618.13,5384.8h-4.83v-35.63h4.83v35.63Z"/>
    <path class="cls-1" d="m2597.57,5353.04c0,.92-.31,1.69-.94,2.32s-1.4.94-2.32.94-1.64-.31-2.27-.94c-.63-.63-.94-1.4-.94-2.32s.31-1.64.94-2.29c.63-.64,1.38-.97,2.27-.97s1.69.32,2.32.97c.63.65.94,1.41.94,2.29Zm-.87,31.76h-4.83v-24.53h4.83v24.53Z"/>
    <path class="cls-1" d="m2588.97,5364.54h-4.48v11.71c0,2.88-.84,5.16-2.52,6.82-1.68,1.66-3.98,2.49-6.9,2.49-1.7,0-3.22-.4-4.58-1.2s-2.41-1.93-3.16-3.38c-.75-1.46-1.07-3.16-.97-5.09l4.63-.46c-.1,1.73.23,3.11.99,4.15s1.84,1.55,3.23,1.55,2.48-.41,3.26-1.22,1.17-2,1.17-3.56v-11.81h-12.42v-4.28h12.42v-7.33h4.83v7.33h4.48v4.28h.02Z"/>
    <path class="cls-1" d="m2552.27,5378.24c0,1.22-.31,2.39-.92,3.51-.61,1.12-1.55,2.04-2.83,2.75s-2.82,1.07-4.66,1.07c-1.66,0-3.08-.35-4.25-1.04s-2.09-1.62-2.77-2.77v3.05h-4.53v-16.54c0-2.71.87-4.86,2.6-6.44s4.21-2.37,7.43-2.37c1.87,0,3.56.36,5.09,1.09s2.72,1.82,3.59,3.28,1.25,3.21,1.15,5.24l-4.58.36.05-.71c0-1.56-.47-2.8-1.42-3.71-.95-.92-2.27-1.38-3.97-1.38s-3.05.41-3.97,1.22-1.37,1.87-1.37,3.16v1.02l6.11,1.02c3.09.51,5.4,1.42,6.95,2.72s2.32,3.13,2.32,5.47h-.02Zm-4.58-.51c0-1.15-.48-2.02-1.45-2.6s-2.28-1.02-3.94-1.32l-5.39-.87v1.42c0,2.04.57,3.68,1.71,4.94s2.59,1.88,4.35,1.88c1.46,0,2.61-.31,3.46-.94.85-.63,1.27-1.47,1.27-2.52h-.01Z"/>
    <path class="cls-1" d="m2517.1,5372.54c0,2.41-.49,4.61-1.48,6.59s-2.36,3.55-4.12,4.71c-1.76,1.15-3.75,1.73-5.95,1.73-1.87,0-3.51-.36-4.94-1.07-1.42-.71-2.63-1.71-3.61-3v14.76h-4.83v-35.98h4.83v3.31c.98-1.29,2.19-2.29,3.61-3,1.43-.71,3.07-1.07,4.94-1.07,2.21,0,4.19.58,5.95,1.73s3.14,2.72,4.12,4.71c.98,1.98,1.48,4.18,1.48,6.59h0Zm-4.83,0c0-2.44-.71-4.45-2.14-6.03s-3.27-2.37-5.55-2.37-4.02.79-5.45,2.37-2.14,3.59-2.14,6.03c0,1.59.32,3.03.97,4.3s1.54,2.27,2.7,3c1.15.73,2.46,1.09,3.92,1.09,2.24,0,4.08-.79,5.52-2.37s2.16-3.59,2.16-6.03h.01Z"/>
    <path class="cls-1" d="m2466.01,5360.27h4.83v13.23c0,2.38.57,4.25,1.71,5.62s2.67,2.06,4.61,2.06c3.46,0,5.19-2,5.19-6v-14.91h4.83v15.88c0,2.92-.75,5.22-2.26,6.9s-3.6,2.52-6.29,2.52c-1.7,0-3.2-.32-4.5-.97-1.31-.64-2.4-1.53-3.28-2.65v2.85h-4.83v-24.53h-.01Z"/>
    <path class="cls-1" d="m2461.78,5353.04c0,.92-.31,1.69-.94,2.32s-1.4.94-2.32.94-1.64-.31-2.27-.94c-.63-.63-.94-1.4-.94-2.32s.31-1.64.94-2.29c.63-.64,1.38-.97,2.27-.97s1.69.32,2.32.97c.63.65.94,1.41.94,2.29Zm-.86,31.76h-4.83v-24.53h4.83v24.53Z"/>
    <path class="cls-1" d="m2452.37,5372.59c0,2.48-.51,4.7-1.53,6.67-1.02,1.97-2.46,3.51-4.33,4.63s-4.02,1.68-6.46,1.68c-1.93,0-3.72-.38-5.37-1.15s-3-1.84-4.07-3.23-1.74-2.98-2.01-4.78l4.58-.81c.24,1.7.99,3.06,2.26,4.1s2.77,1.55,4.5,1.55c2.17,0,3.97-.7,5.39-2.11s2.26-3.3,2.49-5.67h-18.53v-2.34c0-2.24.45-4.24,1.35-6.01.9-1.76,2.18-3.14,3.84-4.12,1.66-.98,3.6-1.48,5.8-1.48,2.38,0,4.48.57,6.31,1.71s3.25,2.71,4.25,4.71,1.5,4.22,1.5,6.67l.03-.02Zm-4.79-3.01c-.44-1.76-1.31-3.18-2.62-4.25s-2.86-1.6-4.66-1.6c-1.93,0-3.49.56-4.68,1.68s-1.82,2.51-1.88,4.17h13.84,0Z"/>
    <path class="cls-1" d="m2427.33,5364.54h-4.48v11.71c0,2.88-.84,5.16-2.52,6.82-1.68,1.66-3.98,2.49-6.9,2.49-1.7,0-3.22-.4-4.58-1.2s-2.41-1.93-3.16-3.38c-.75-1.46-1.07-3.16-.97-5.09l4.63-.46c-.1,1.73.23,3.11.99,4.15s1.84,1.55,3.23,1.55,2.48-.41,3.26-1.22,1.17-2,1.17-3.56v-11.81h-12.42v-4.28h12.42v-7.33h4.83v7.33h4.48v4.28h.02Z"/>
    <path class="cls-1" d="m2390.63,5378.24c0,1.22-.31,2.39-.92,3.51-.61,1.12-1.55,2.04-2.83,2.75s-2.82,1.07-4.66,1.07c-1.66,0-3.08-.35-4.25-1.04s-2.09-1.62-2.77-2.77v3.05h-4.53v-16.54c0-2.71.87-4.86,2.6-6.44s4.21-2.37,7.43-2.37c1.87,0,3.56.36,5.09,1.09s2.72,1.82,3.59,3.28,1.25,3.21,1.15,5.24l-4.58.36.05-.71c0-1.56-.47-2.8-1.42-3.71-.95-.92-2.27-1.38-3.97-1.38s-3.05.41-3.97,1.22-1.37,1.87-1.37,3.16v1.02l6.11,1.02c3.09.51,5.4,1.42,6.95,2.72s2.32,3.13,2.32,5.47h-.02Zm-4.58-.51c0-1.15-.48-2.02-1.45-2.6s-2.28-1.02-3.94-1.32l-5.39-.87v1.42c0,2.04.57,3.68,1.71,4.94s2.59,1.88,4.35,1.88c1.46,0,2.61-.31,3.46-.94.85-.63,1.27-1.47,1.27-2.52h-.01Z"/>
    <path class="cls-1" d="m2366.97,5371.87c0,2.24-.49,4.28-1.48,6.13s-2.35,3.31-4.1,4.38-3.72,1.6-5.93,1.6c-3.33,0-5.94-1.25-7.84-3.77v3.97c0,2.61.7,4.68,2.11,6.21,1.41,1.53,3.27,2.29,5.57,2.29,2.1,0,3.78-.65,5.04-1.96s1.85-2.98,1.78-5.01l4.73.61c.03,2.14-.44,4-1.42,5.6-.98,1.59-2.36,2.83-4.12,3.71s-3.75,1.32-5.96,1.32c-2.48,0-4.66-.55-6.57-1.65-1.9-1.1-3.38-2.63-4.43-4.58s-1.58-4.18-1.58-6.69v-23.77h4.83v3.21c1.93-2.54,4.55-3.83,7.84-3.87,2.21,0,4.18.55,5.93,1.65s3.11,2.59,4.1,4.45c.98,1.87,1.48,3.92,1.48,6.16h.02Zm-4.84,0c0-2.21-.68-4.03-2.04-5.47-1.36-1.44-3.1-2.16-5.24-2.16s-3.88.72-5.22,2.16-2.01,3.27-2.01,5.47.67,4.02,2.01,5.45c1.34,1.42,3.08,2.14,5.22,2.14s3.89-.71,5.24-2.14c1.36-1.43,2.04-3.24,2.04-5.45Z"/>
    <path class="cls-1" d="m2337.7,5384.8h-4.83v-13.74c0-2.24-.47-3.98-1.4-5.22s-2.16-1.86-3.69-1.86c-1.25,0-2.23.42-2.93,1.25s-1.04,2.06-1.04,3.69c0,.54.02.95.05,1.22l-4.89-.71c-.13-3.26.48-5.73,1.86-7.41,1.37-1.68,3.25-2.52,5.62-2.52,2.78,0,4.92,1.09,6.41,3.26v-2.49h4.83v24.53h0Z"/>
    <path class="cls-1" d="m2317.29,5372.59c0,2.48-.51,4.7-1.53,6.67-1.02,1.97-2.46,3.51-4.33,4.63s-4.02,1.68-6.46,1.68c-1.93,0-3.72-.38-5.37-1.15s-3-1.84-4.07-3.23-1.74-2.98-2.01-4.78l4.58-.81c.24,1.7.99,3.06,2.26,4.1s2.77,1.55,4.5,1.55c2.17,0,3.97-.7,5.39-2.11s2.26-3.3,2.49-5.67h-18.53v-2.34c0-2.24.45-4.24,1.35-6.01.9-1.76,2.18-3.14,3.84-4.12,1.66-.98,3.6-1.48,5.8-1.48,2.38,0,4.48.57,6.31,1.71s3.25,2.71,4.25,4.71,1.5,4.22,1.5,6.67l.03-.02Zm-4.78-3.01c-.44-1.76-1.31-3.18-2.62-4.25s-2.86-1.6-4.66-1.6c-1.93,0-3.49.56-4.68,1.68s-1.82,2.51-1.88,4.17h13.84,0Z"/>
    <path class="cls-1" d="m2291.18,5372.59c0,2.48-.51,4.7-1.53,6.67-1.02,1.97-2.46,3.51-4.33,4.63s-4.02,1.68-6.46,1.68c-1.93,0-3.72-.38-5.37-1.15s-3-1.84-4.07-3.23-1.74-2.98-2.01-4.78l4.58-.81c.24,1.7.99,3.06,2.26,4.1s2.77,1.55,4.5,1.55c2.17,0,3.97-.7,5.39-2.11s2.26-3.3,2.49-5.67h-18.53v-2.34c0-2.24.45-4.24,1.35-6.01.9-1.76,2.18-3.14,3.84-4.12,1.66-.98,3.6-1.48,5.8-1.48,2.38,0,4.48.57,6.31,1.71s3.25,2.71,4.25,4.71,1.5,4.22,1.5,6.67l.03-.02Zm-4.78-3.01c-.44-1.76-1.31-3.18-2.62-4.25s-2.86-1.6-4.66-1.6c-1.93,0-3.49.56-4.68,1.68s-1.82,2.51-1.88,4.17h13.84,0Z"/>
    <path class="cls-1" d="m2263.7,5384.8h-4.68v-13.74c0-2.34-.45-4.12-1.35-5.34-.9-1.22-2.11-1.83-3.64-1.83-1.39,0-2.42.4-3.08,1.2-.66.8-.99,2.1-.99,3.89v15.83h-4.63l.1-14.4c-.1-2.14-.59-3.76-1.48-4.86-.88-1.1-2.05-1.65-3.51-1.65s-2.42.4-3.08,1.2c-.66.8-.99,2.1-.99,3.89v15.83h-4.68l.1-17c0-2.75.63-4.82,1.88-6.21,1.26-1.39,3.04-2.09,5.34-2.09,1.6,0,2.99.38,4.17,1.15,1.19.76,2.14,1.84,2.85,3.23.51-1.42,1.33-2.51,2.47-3.26s2.54-1.12,4.2-1.12c1.39,0,2.62.32,3.69.97,1.07.65,1.94,1.54,2.62,2.7v-2.85h4.68v24.48-.02Z"/>
    <path class="cls-1" d="m2227.97,5372.59c0,2.48-.51,4.7-1.53,6.67-1.02,1.97-2.46,3.51-4.33,4.63s-4.02,1.68-6.46,1.68c-1.93,0-3.72-.38-5.37-1.15s-3-1.84-4.07-3.23-1.74-2.98-2.01-4.78l4.58-.81c.24,1.7.99,3.06,2.26,4.1s2.77,1.55,4.5,1.55c2.17,0,3.97-.7,5.39-2.11s2.26-3.3,2.49-5.67h-18.53v-2.34c0-2.24.45-4.24,1.35-6.01.9-1.76,2.18-3.14,3.84-4.12,1.66-.98,3.6-1.48,5.8-1.48,2.38,0,4.48.57,6.31,1.71s3.25,2.71,4.25,4.71,1.5,4.22,1.5,6.67l.03-.02Zm-4.78-3.01c-.44-1.76-1.31-3.18-2.62-4.25s-2.86-1.6-4.66-1.6c-1.93,0-3.49.56-4.68,1.68s-1.82,2.51-1.88,4.17h13.84,0Z"/>
    <path class="cls-1" d="m2200.49,5384.8h-4.83v-13.23c0-2.37-.57-4.25-1.71-5.62-1.14-1.38-2.67-2.06-4.61-2.06-3.46,0-5.19,2-5.19,6.01v14.91h-4.84v-15.88c0-2.92.76-5.22,2.27-6.9,1.51-1.68,3.61-2.52,6.29-2.52,1.7,0,3.2.32,4.5.97,1.31.65,2.4,1.53,3.28,2.65v-2.85h4.83v24.53h.01Z"/>
    <path class="cls-1" d="m2177.49,5364.54h-4.48v11.71c0,2.88-.84,5.16-2.52,6.82-1.68,1.66-3.98,2.49-6.9,2.49-1.7,0-3.22-.4-4.58-1.2s-2.41-1.93-3.16-3.38c-.75-1.46-1.07-3.16-.97-5.09l4.63-.46c-.1,1.73.23,3.11.99,4.15s1.84,1.55,3.23,1.55,2.48-.41,3.26-1.22,1.17-2,1.17-3.56v-11.81h-12.42v-4.28h12.42v-7.33h4.83v7.33h4.48v4.28h.02Z"/>
    <path class="cls-1" d="m2153.41,5381.85c0,.95-.32,1.75-.97,2.39s-1.44.97-2.39.97c-.88,0-1.64-.32-2.26-.97-.63-.64-.94-1.44-.94-2.39,0-.85.31-1.59.94-2.21.63-.63,1.38-.94,2.26-.94.95,0,1.75.31,2.39.92s.97,1.36.97,2.24h0Z"/>
  </g>
</svg>